<ttFont>
          <CharString index="0">
            hlineto
            25 callsubr
            -108 -89 callgsubr
            86 vlineto
            28 5 5 28 vhcurveto
            return
          </CharString>
          <CharString index="1">
            -104 callgsubr
            -59 hlineto
            -78 -28 -29 -62 hvcurveto
            return
          </CharString>
          <CharString index="2">
            -107 callgsubr
            337 -32 callsubr
            return
          </CharString>
          <CharString index="3">
            -83 228 hlineto
            -106 callgsubr
            return
          </CharString>
          <CharString index="4">
            5 23 hvcurveto
            return
          </CharString>
          <CharString index="5">
            5 21 vhcurveto
            return
          </CharString>
          <CharString index="6">
            rmoveto
            -57 -4 -29 -26 -60 vvcurveto
            -100 callsubr
            151 hlineto
            return
          </CharString>
          <CharString index="7">
            441 callsubr
            36 -25 62 vhcurveto
            38 74 -16 hlineto
            -21 -6 5 21 hvcurveto
            92 -96 callgsubr
            return
          </CharString>
          <CharString index="8">
            23 callsubr
            -186 439 callsubr
            -23 -78 59 hlineto
            77 28 495 callsubr
            -34 29 -67 vhcurveto
            -63 395 callgsubr
            vlineto
            endchar
          </CharString>
          <CharString index="9">
            339 callgsubr
            258 279 callgsubr
            return
          </CharString>
          <CharString index="10">
            -210 vlineto
            333 callgsubr
            return
          </CharString>
          <CharString index="11">
            -47 callsubr
            -629 -6 callgsubr
            return
          </CharString>
          <CharString index="12">
            -21 -93 callsubr
            return
          </CharString>
          <CharString index="13">
            hlineto
            -95 callsubr
            return
          </CharString>
          <CharString index="14">
            -6 -103 callsubr
            return
          </CharString>
          <CharString index="15">
            114 187 callgsubr
          </CharString>
          <CharString index="16">
            vlineto
            -76 callgsubr
            return
          </CharString>
          <CharString index="17">
            -28 -74 callsubr
            return
          </CharString>
          <CharString index="18">
            -80 callgsubr
            -29 -71 hvcurveto
            return
          </CharString>
          <CharString index="19">
            -275 -130 hlineto
            -84 callgsubr
            return
          </CharString>
          <CharString index="20">
            26 6 -6 -26 hvcurveto
            -162 vlineto
            -26 -7 -6 -25 vhcurveto
            -28 149 -114 -376 -36 callgsubr
            return
          </CharString>
          <CharString index="21">
            -93 callgsubr
            -297 -62 callsubr
            return
          </CharString>
          <CharString index="22">
            25 callgsubr
            143 vlineto
            26 5 5 26 vhcurveto
            61 -174 hlineto
            197 callsubr
            return
          </CharString>
          <CharString index="23">
            21 -97 callgsubr
            return
          </CharString>
          <CharString index="24">
            -32 -77 callgsubr
            return
          </CharString>
          <CharString index="25">
            -61 28 -54 callgsubr
            -30 hlineto
            -22 260 callsubr
            return
          </CharString>
          <CharString index="26">
            -94 callgsubr
            9 -11 callgsubr
            -41 69 59 197 callgsubr
            -43 hlineto
            -69 -33 -74 callsubr
            return
          </CharString>
          <CharString index="27">
            26 6 -51 callgsubr
            -25 vhcurveto
            -52 return
          </CharString>
          <CharString index="28">
            rmoveto
            -7 callsubr
            -53 -9 callgsubr
            401 vlineto
            21 7 6 22 vhcurveto
            53 -62 callgsubr
            -116 115 rmoveto
            181 callgsubr
            122 418 callsubr
          </CharString>
          <CharString index="29">
            -83 callsubr
            -103 hlineto
            return
          </CharString>
          <CharString index="30">
            32 468 callsubr
            61 hvcurveto
            158 vlineto
            62 -33 29 -68 vhcurveto
            -42 hlineto
            -69 -31 -74 callsubr
            -59 69 41 -94 callgsubr
            6 11 callsubr
            -126 220 callgsubr
            -110 return
          </CharString>
          <CharString index="31">
            hlineto
            -25 502 callsubr
            122 66 vlineto
            76 32 29 66 hvcurveto
            188 28 callsubr
            return
          </CharString>
          <CharString index="32">
            5 6 3 9 11 vvcurveto
            148 vlineto
            70 450 callgsubr
            -84 hlineto
            414 callgsubr
            -139 vlineto
            -17 4 -12 9 -8 vhcurveto
            -43 -9 -21 -33 -50 vvcurveto
            -132 vlineto
            -62 33 -30 58 500 callgsubr
            22 14 4 11 8 hvcurveto
            -86 114 237 -114 -51 511 callgsubr
            -24 vhcurveto
            -73 hlineto
            -22 281 callgsubr
            22 vhcurveto
            return
          </CharString>
          <CharString index="33">
            -29 -62 hvcurveto
            return
          </CharString>
          <CharString index="34">
            -22 -101 callgsubr
            return
          </CharString>
          <CharString index="35">
            9 10 5 15 20 vvcurveto
            125 323 callgsubr
            return
          </CharString>
          <CharString index="36">
            rmoveto
            -7 callsubr
            -38 -9 callgsubr
            71 -115 -87 -20 callgsubr
            108 3 callsubr
            165 vlineto
            63 -30 35 -75 vhcurveto
            -79 -9 callgsubr
            127 vlineto
            21 7 6 22 vhcurveto
            38 -62 callgsubr
            -72 116 88 365 callgsubr
            -76 vhcurveto
            -110 hlineto
            -77 444 callsubr
            -155 vlineto
            -63 28 -37 75 vhcurveto
            81 -62 callgsubr
            return
          </CharString>
          <CharString index="37">
            158 callsubr
            -78 vhcurveto
            -57 hlineto
            -21 -6 5 21 hvcurveto
            50 -94 callgsubr
            return
          </CharString>
          <CharString index="38">
            34 callgsubr
            -54 callsubr
            return
          </CharString>
          <CharString index="39">
            vlineto
            -49 callsubr
            return
          </CharString>
          <CharString index="40">
            rmoveto
            -21 -6 -6 -23 vhcurveto
            -20 -16 callgsubr
            36 -111 -45 -20 callgsubr
            81 hlineto
            76 33 36 63 hvcurveto
            87 vlineto
            62 -31 36 -77 vhcurveto
            -54 -9 callgsubr
            72 vlineto
            21 7 6 22 vhcurveto
            20 -62 callgsubr
            -37 109 46 365 callgsubr
            -76 vhcurveto
            -79 207 callsubr
            -90 vlineto
            -62 30 -36 77 vhcurveto
            54 hlineto
            23 6 -6 -21 hvcurveto
            return
          </CharString>
          <CharString index="41">
            -19 callsubr
            -6 -5 -19 vhcurveto
            -30 hlineto
            return
          </CharString>
          <CharString index="42">
            vlineto
            -53 callsubr
            return
          </CharString>
          <CharString index="43">
            106 callsubr
            -40 callsubr
            return
          </CharString>
          <CharString index="44">
            223 callgsubr
            119 vlineto
            15 -4 11 return
          </CharString>
          <CharString index="45">
            vlineto
            -63 callgsubr
            return
          </CharString>
          <CharString index="46">
            20 -51 callsubr
            return
          </CharString>
          <CharString index="47">
            -24 -10 -8 -23 vhcurveto
            -30 hlineto
            -21 -7 5 23 hvcurveto
            155 vlineto
            21 7 5 21 vhcurveto
            28 78 -61 239 callgsubr
            return
          </CharString>
          <CharString index="48">
            hlineto
            18 -30 callgsubr
          </CharString>
          <CharString index="49">
            62 hlineto
            20 13 4 8 return
          </CharString>
          <CharString index="50">
            113 -81 callsubr
            return
          </CharString>
          <CharString index="51">
            52 302 55 -302 rlineto
            40 -218 rmoveto
            116 hlineto
            -133 631 rlineto
            -155 hlineto
            -127 -631 rlineto
            115 hlineto
            22 131 rlineto
            138 hlineto
            endchar
          </CharString>
          <CharString index="52">
            92 vlineto
            71 -33 29 -82 vhcurveto
            -70 -83 43 307 callsubr
            return
          </CharString>
          <CharString index="53">
            162 -52 callsubr
            return
          </CharString>
          <CharString index="54">
            23 -97 callgsubr
            return
          </CharString>
          <CharString index="55">
            hlineto
            19 -46 callgsubr
            return
          </CharString>
          <CharString index="56">
            vlineto
            77 -63 callsubr
            -6 8 vhcurveto
            return
          </CharString>
          <CharString index="57">
            hlineto
            -21 209 callgsubr
            return
          </CharString>
          <CharString index="58">
            23 -88 callgsubr
            return
          </CharString>
          <CharString index="59">
            -65 callgsubr
            -6 5 23 hvcurveto
            return
          </CharString>
          <CharString index="60">
            -101 callsubr
            255 hmoveto
            83 return
          </CharString>
          <CharString index="61">
            17 callsubr
            -21 vhcurveto
            return
          </CharString>
          <CharString index="62">
            rmoveto
            95 105 -95 hlineto
            return
          </CharString>
          <CharString index="63">
            vlineto
            210 callgsubr
            return
          </CharString>
          <CharString index="64">
            54 callsubr
            78 26 34 62 hvcurveto
            67 169 callgsubr
            -398 -114 rmoveto
            114 168 280 callgsubr
            -295 -245 101 callsubr
            return
          </CharString>
          <CharString index="65">
            -59 -93 callgsubr
            return
          </CharString>
          <CharString index="66">
            -49 callgsubr
            -42 return
          </CharString>
          <CharString index="67">
            -146 -21 callgsubr
            return
          </CharString>
          <CharString index="68">
            195 rmoveto
            -85 callgsubr
            90 hlineto
            return
          </CharString>
          <CharString index="69">
            6 40 callgsubr
            -36 28 -62 vhcurveto
            endchar
          </CharString>
          <CharString index="70">
            50 -29 -26 17 -70 hhcurveto
            -67 -84 28 hlineto
            39 15 -14 -38 21 hvcurveto
            57 -103 103 callgsubr
            return
          </CharString>
          <CharString index="71">
            221 callgsubr
            -158 vlineto
            -33 15 -15 83 callsubr
            -33 vvcurveto
            return
          </CharString>
          <CharString index="72">
            -7 -5 -21 vhcurveto
            return
          </CharString>
          <CharString index="73">
            -4 callgsubr
            -78 -28 -29 -62 hvcurveto
            return
          </CharString>
          <CharString index="74">
            -69 callgsubr
            -119 -48 callgsubr
            87 vlineto
            22 -88 callgsubr
            68 83 -68 -48 callgsubr
            113 -91 callsubr
            8 17 callgsubr
            -41 69 59 vlineto
            62 -33 29 -69 vhcurveto
            -43 hlineto
            -69 -32 -74 callsubr
            -148 vlineto
            -33 15 352 callgsubr
            -15 -15 -32 vvcurveto
            return
          </CharString>
          <CharString index="75">
            vlineto
            23 171 callgsubr
            return
          </CharString>
          <CharString index="76">
            10 10 5 15 20 vvcurveto
            125 28 callsubr
            return
          </CharString>
          <CharString index="77">
            -94 callsubr
            87 vlineto
            22 348 callsubr
            return
          </CharString>
          <CharString index="78">
            -116 -98 hlineto
            -64 callsubr
            return
          </CharString>
          <CharString index="79">
            -72 callgsubr
            290 return
          </CharString>
          <CharString index="80">
            354 callgsubr
            -21 vhcurveto
            return
          </CharString>
          <CharString index="81">
            -81 callgsubr
            -61 28 -30 78 415 callgsubr
            -57 hlineto
            -21 -6 5 21 hvcurveto
            50 vlineto
            21 6 5 21 vhcurveto
            return
          </CharString>
          <CharString index="82">
            hlineto
            76 callgsubr
            return
          </CharString>
          <CharString index="83">
            -22 31 callgsubr
            return
          </CharString>
          <CharString index="84">
            220 callgsubr
            -34 hlineto
            -18 209 callgsubr
            return
          </CharString>
          <CharString index="85">
            -23 callsubr
            57 -114 -71 vlineto
            return
          </CharString>
          <CharString index="86">
            vlineto
            -7 callgsubr
            return
          </CharString>
          <CharString index="87">
            28 44 callsubr
            return
          </CharString>
          <CharString index="88">
            -20 callsubr
            117 208 callgsubr
            -22 return
          </CharString>
          <CharString index="89">
            vlineto
            -106 callgsubr
            return
          </CharString>
          <CharString index="90">
            62 hlineto
            20 14 261 callgsubr
            return
          </CharString>
          <CharString index="91">
            rmoveto
            94 105 -94 hlineto
            -364 229 rmoveto
            6 callgsubr
            return
          </CharString>
          <CharString index="92">
            114 -113 -103 vlineto
            -23 -8 -5 -21 vhcurveto
            -27 59 callgsubr
          </CharString>
          <CharString index="93">
            rlineto
            102 hlineto
            62 118 60 -118 rlineto
            101 hlineto
            return
          </CharString>
          <CharString index="94">
            85 38 28 66 hvcurveto
            191 vlineto
            62 -28 34 -78 vhcurveto
            return
          </CharString>
          <CharString index="95">
            -83 206 hlineto
            7 callsubr
            return
          </CharString>
          <CharString index="96">
            rmoveto
            197 callsubr
            -45 -75 callgsubr
            45 170 callgsubr
            178 179 145 callsubr
            return
          </CharString>
          <CharString index="97">
            vlineto
            76 callgsubr
            return
          </CharString>
          <CharString index="98">
            6 callgsubr
            -54 22 -30 59 -6 vhcurveto
            -84 -144 rlineto
            102 hlineto
            108 callsubr
            return
          </CharString>
          <CharString index="99">
            vlineto
            -70 32 -30 83 vhcurveto
            88 437 callgsubr
            return
          </CharString>
          <CharString index="100">
            -21 -6 -6 -22 vhcurveto
            return
          </CharString>
          <CharString index="101">
            -69 callgsubr
            -143 -48 callgsubr
            126 32 vlineto
            269 callgsubr
            134 197 callgsubr
            -42 hlineto
            -69 -31 -74 callsubr
            -59 69 41 -94 callgsubr
            6 11 callsubr
            -103 8 callsubr
            -389 283 callsubr
            -129 11 callgsubr
            137 77 -137 vlineto
            34 callgsubr
            return
          </CharString>
          <CharString index="102">
            -11 callsubr
            -61 25 -31 61 -7 64 callsubr
            60 7 24 31 60 273 callsubr
          </CharString>
          <CharString index="103">
            106 137 404 callgsubr
            -53 -77 -52 77 404 callgsubr
            return
          </CharString>
          <CharString index="104">
            -292 -308 rlineto
            118 hlineto
            174 186 rlineto
            -123 return
          </CharString>
          <CharString index="105">
            30 70 hvcurveto
            return
          </CharString>
          <CharString index="106">
            -70 callgsubr
            103 -77 callsubr
            -196 hlineto
            34 callgsubr
            return
          </CharString>
          <CharString index="107">
            -70 -47 callgsubr
            70 hvcurveto
            return
          </CharString>
          <CharString index="108">
            -71 32 -29 83 vhcurveto
            33 callgsubr
            return
          </CharString>
          <CharString index="109">
            77 32 36 63 hvcurveto
            return
          </CharString>
          <CharString index="110">
            hlineto
            2 callsubr
            return
          </CharString>
          <CharString index="111">
            -21 vhcurveto
            -36 -94 callsubr
            181 113 callsubr
            -59 hlineto
            -77 -29 116 callgsubr
            62 hlineto
            return
          </CharString>
          <CharString index="112">
            378 callsubr
            -37 113 47 vlineto
            71 -32 29 -83 191 callgsubr
            return
          </CharString>
          <CharString index="113">
            10 hlineto
            65 19 31 51 hvcurveto
            35 -94 -20 vlineto
            -18 -5 -5 -13 vhcurveto
            -23 -33 43 -49 hhcurveto
            -12 hlineto
            -64 -20 -33 -52 hvcurveto
            -32 94 return
          </CharString>
          <CharString index="114">
            -17 callgsubr
            149 107 callsubr
            return
          </CharString>
          <CharString index="115">
            vlineto
            -21 -35 callsubr
            return
          </CharString>
          <CharString index="116">
            33 -2 callsubr
            return
          </CharString>
          <CharString index="117">
            432 rmoveto
            -97 116 97 hlineto
            -211 -343 -82 callgsubr
            return
          </CharString>
          <CharString index="118">
            37 callsubr
            -21 hvcurveto
            return
          </CharString>
          <CharString index="119">
            317 callgsubr
            359 92 vlineto
            -256 -99 rmoveto
            177 callsubr
            111 92 -99 vlineto
            -270 -288 0 callgsubr
            812 387 rmoveto
            83 -1053 60 callsubr
            371 callgsubr
            -189 hlineto
            41 callsubr
          </CharString>
          <CharString index="120">
            21 154 callgsubr
            return
          </CharString>
          <CharString index="121">
            -359 -100 callgsubr
            return
          </CharString>
          <CharString index="122">
            94 callgsubr
            22 9 -9 -24 hvcurveto
            -249 235 callsubr
            return
          </CharString>
          <CharString index="123">
            -21 -7 104 callsubr
            21 -37 24 -43 return
          </CharString>
          <CharString index="124">
            vlineto
            -21 -6 -5 return
          </CharString>
          <CharString index="125">
            244 callsubr
            -60 24 -31 59 -7 vhcurveto
            -85 -145 -14 callsubr
            -84 147 rlineto
            51 9 21 31 56 vvcurveto
            -15 callsubr
          </CharString>
          <CharString index="126">
            43 callsubr
            -91 113 548 69 vlineto
            endchar
          </CharString>
          <CharString index="127">
            -77 -32 137 callsubr
            32 -36 77 vhcurveto
            98 3 callsubr
            67 -111 -51 vlineto
            -7 callsubr
            -36 210 callsubr
            36 355 callgsubr
            return
          </CharString>
          <CharString index="128">
            -83 259 -358 hlineto
            -107 callgsubr
            return
          </CharString>
          <CharString index="129">
            -104 callgsubr
            -264 -86 callsubr
            64 -9 hlineto
            -98 callgsubr
            return
          </CharString>
          <CharString index="130">
            113 50 callgsubr
            35 37 callgsubr
            -23 hvcurveto
            return
          </CharString>
          <CharString index="131">
            -91 callsubr
            71 hlineto
            return
          </CharString>
          <CharString index="132">
            -61 -37 -28 -66 hvcurveto
            return
          </CharString>
          <CharString index="133">
            vlineto
            -70 32 169 callsubr
            return
          </CharString>
          <CharString index="134">
            32 -30 83 vhcurveto
            return
          </CharString>
          <CharString index="135">
            vlineto
            12 -3 8 -4 6 vhcurveto
            return
          </CharString>
          <CharString index="136" raw="1">
            de1ee306 ddac0b  
          </CharString>
          <CharString index="137">
            283 547 rmoveto
            54 -25 30 -64 vhcurveto
            -77 hlineto
            -63 -26 -30 -54 hvcurveto
            -184 vlineto
            -53 26 -30 63 vhcurveto
            77 hlineto
            64 25 30 53 hvcurveto
            405 -96 rmoveto
            55 -26 29 -63 vhcurveto
            -77 hlineto
            -64 -25 -29 -55 hvcurveto
            -183 vlineto
            -54 25 -30 64 vhcurveto
            77 hlineto
            63 26 30 54 hvcurveto
            -498 293 rmoveto
            -19 -4 -5 -20 vhcurveto
            -20 hlineto
            -20 -5 5 19 hvcurveto
            156 vlineto
            19 5 6 20 vhcurveto
            20 hlineto
            20 4 -6 -19 hvcurveto
            405 -435 rmoveto
            -20 -5 -5 -20 vhcurveto
            -20 hlineto
            -20 -4 5 20 hvcurveto
            155 vlineto
            20 4 5 20 vhcurveto
            20 hlineto
            20 5 -5 -20 hvcurveto
            -126 378 rmoveto
            -311 -631 rlineto
            89 hlineto
            312 631 rlineto
            return
          </CharString>
          <CharString index="138">
            -48 callgsubr
            78 -77 callsubr
            -179 94 callsubr
            return
          </CharString>
          <CharString index="139">
            vhcurveto
            -84 -144 -14 callsubr
            return
          </CharString>
          <CharString index="140">
            rmoveto
            95 35 callsubr
            -117 hlineto
            390 callgsubr
            -434 vlineto
            -62 33 -37 76 512 callgsubr
            498 callgsubr
            233 -166 -81 50 -140 vlineto
            -7 callsubr
            -47 -16 callgsubr
            410 -29 callgsubr
            47 -62 callgsubr
            -83 vlineto
            endchar
          </CharString>
          <CharString index="141">
            rmoveto
            -23 -6 -5 -21 vhcurveto
            -47 hlineto
            -23 -4 7 21 hvcurveto
            180 480 callsubr
            47 477 callsubr
            -210 -180 rmoveto
            -21 -5 -7 -23 394 callsubr
            180 -65 callsubr
            47 hlineto
            23 420 callsubr
            392 179 rmoveto
            83 -676 -83 398 -69 vlineto
            -36 -1 -18 -14 -3 -26 rrcurveto
            26 callgsubr
            69 -32 29 -64 2 vhcurveto
            69 vlineto
            endchar
          </CharString>
          <CharString index="142">
            vlineto
            110 callsubr
            return
          </CharString>
          <CharString index="143">
            -83 248 -69 -89 350 callgsubr
            75 17 callgsubr
            -63 401 callgsubr
            -60 57 -114 -206 114 71 95 340 callsubr
            89 478 callsubr
            -75 hlineto
            69 callgsubr
            return
          </CharString>
          <CharString index="144">
            hlineto
            21 7 -5 return
          </CharString>
          <CharString index="145">
            vlineto
            333 callgsubr
            114 50 callgsubr
            35 hlineto
            21 7 294 callsubr
            -7 -64 callgsubr
          </CharString>
          <CharString index="146">
            rmoveto
            53 -77 470 callsubr
            -106 137 rlineto
            -117 hlineto
            -106 -137 470 callsubr
            return
          </CharString>
          <CharString index="147">
            134 callgsubr
            160 callsubr
            -113 -103 vlineto
            -23 -8 -5 -21 vhcurveto
            -27 -75 callgsubr
            return
          </CharString>
          <CharString index="148">
            333 callgsubr
            114 367 vlineto
            23 8 7 21 vhcurveto
            35 hlineto
            21 6 -5 -23 hvcurveto
            -186 vlineto
            -22 -6 -64 callgsubr
          </CharString>
          <CharString index="149">
            24 callgsubr
            38 25 16 33 8 hvcurveto
            -49 return
          </CharString>
          <CharString index="150">
            -23 -8 -6 4 callsubr
            20 14 4 9 8 hvcurveto
            return
          </CharString>
          <CharString index="151">
            30 61 hvcurveto
            return
          </CharString>
          <CharString index="152">
            -83 64 49 callgsubr
            return
          </CharString>
          <CharString index="153">
            251 callgsubr
            113 69 vlineto
            21 return
          </CharString>
          <CharString index="154">
            1 266 385 rmoveto
            473 callgsubr
            132 -29 callgsubr
            54 170 callsubr
            -403 vmoveto
            473 callgsubr
            138 -29 callgsubr
            54 170 callsubr
            111 280 rmoveto
            110 callsubr
            -116 hlineto
            390 callgsubr
            -137 vlineto
            -39 12 -27 30 -10 vhcurveto
            -30 -10 -12 -23 -39 vvcurveto
            -148 vlineto
            -63 33 -36 76 vhcurveto
            116 3 callsubr
            148 vlineto
            39 -11 23 -31 10 vhcurveto
            31 10 11 27 39 vvcurveto
            endchar
          </CharString>
          <CharString index="155">
            vlineto
            -33 16 388 callgsubr
            -2 -16 -15 -33 470 callgsubr
            376 callsubr
            return
          </CharString>
          <CharString index="156">
            -10 -8 -23 52 callgsubr
            return
          </CharString>
          <CharString index="157">
            305 callsubr
            12 callgsubr
            return
          </CharString>
          <CharString index="158">
            -16 43 callgsubr
            return
          </CharString>
          <CharString index="159">
            9 8 hvcurveto
            return
          </CharString>
          <CharString index="160">
            vlineto
            377 callsubr
            47 hlineto
            20 13 4 8 8 hvcurveto
            -90 113 277 -113 -87 vlineto
            89 callsubr
            endchar
          </CharString>
          <CharString index="161">
            -48 callsubr
            162 20 vlineto
            return
          </CharString>
          <CharString index="162">
            -69 -69 vlineto
            -81 callgsubr
            return
          </CharString>
          <CharString index="163">
            -57 callgsubr
            -70 -282 284 callgsubr
            -210 182 callsubr
            218 80 vlineto
            2 -30 15 -13 25 -3 rrcurveto
            32 callgsubr
            174 hlineto
            return
          </CharString>
          <CharString index="164">
            hlineto
            -21 83 callgsubr
            return
          </CharString>
          <CharString index="165">
            29 callgsubr
            -204 -10 callgsubr
          </CharString>
          <CharString index="166">
            -70 callgsubr
            151 -43 callgsubr
            -175 vlineto
            -60 26 -31 51 -7 vhcurveto
            -108 -161 rlineto
            120 hlineto
            return
          </CharString>
          <CharString index="167">
            -83 64 74 callgsubr
            return
          </CharString>
          <CharString index="168">
            rmoveto
            -270 hlineto
            -21 -7 5 20 hvcurveto
            28 -91 callsubr
            166 133 491 callsubr
            -62 -87 hlineto
            -78 -28 -27 -57 hvcurveto
            -53 vlineto
            -58 28 -27 78 vhcurveto
            72 37 callsubr
            -20 hvcurveto
            -49 vlineto
            -21 -7 -4 -21 vhcurveto
            -63 43 -114 -208 114 93 98 hlineto
            78 28 27 57 hvcurveto
            67 vlineto
            7 -1 7 -1 6 vhcurveto
            93 -81 hlineto
            -248 -237 rlineto
            111 hlineto
            137 137 rlineto
            -83 -92 callsubr
          </CharString>
          <CharString index="169">
            rmoveto
            83 -62 callgsubr
            -158 vlineto
            -7 callsubr
            -83 hlineto
            134 -331 rmoveto
            124 hlineto
            -105 249 rlineto
            51 10 22 34 52 vvcurveto
            187 35 callsubr
            -232 -631 115 246 38 hlineto
            endchar
          </CharString>
          <CharString index="170">
            -94 callsubr
            96 322 callsubr
            82 -53 -94 callsubr
            93 vlineto
            return
          </CharString>
          <CharString index="171">
            32 callsubr
            -83 145 rlineto
            return
          </CharString>
          <CharString index="172">
            rmoveto
            214 227 rlineto
            122 vlineto
            -332 -349 rlineto
            81 313 156 callgsubr
            114 83 rmoveto
            116 vlineto
            -67 callgsubr
            -103 -98 53 callgsubr
            -91 -8 callsubr
            99 137 83 vlineto
            endchar
          </CharString>
          <CharString index="173">
            180 callsubr
            135 -68 callsubr
            30 hlineto
            21 8 -5 -23 hvcurveto
            return
          </CharString>
          <CharString index="174">
            rmoveto
            197 callsubr
            -34 -74 callgsubr
            return
          </CharString>
          <CharString index="175">
            -71 vlineto
            -61 28 -30 78 vhcurveto
            101 hlineto
            78 28 30 61 hvcurveto
            -70 callsubr
            return
          </CharString>
          <CharString index="176">
            -83 262 78 callsubr
            return
          </CharString>
          <CharString index="177">
            155 89 -155 175 184 88 -300 -631 308 88 return
          </CharString>
          <CharString index="178">
            374 callgsubr
            455 callgsubr
            389 callsubr
            400 callsubr
            -33 372 callsubr
            23 7 5 21 vhcurveto
            endchar
          </CharString>
          <CharString index="179">
            rmoveto
            22 7 5 21 70 callgsubr
            -113 -11 rmoveto
            -70 32 -30 83 vhcurveto
            77 hlineto
            83 436 callsubr
            128 82 -330 53 callgsubr
            return
          </CharString>
          <CharString index="180">
            5 callgsubr
            69 vlineto
            endchar
          </CharString>
          <CharString index="181">
            190 rmoveto
            140 callsubr
            23 hvcurveto
            359 92 vlineto
            return
          </CharString>
          <CharString index="182">
            -685 77 callgsubr
          </CharString>
          <CharString index="183">
            rmoveto
            -23 -7 -5 -22 233 callsubr
            72 hlineto
            -399 -160 rmoveto
            -95 callgsubr
            134 51 callgsubr
            return
          </CharString>
          <CharString index="184">
            420 callsubr
            -189 113 189 vlineto
            21 5 410 callsubr
            65 hlineto
            endchar
          </CharString>
          <CharString index="185">
            -69 -88 vlineto
            40 callsubr
            return
          </CharString>
          <CharString index="186">
            hlineto
            195 callgsubr
            return
          </CharString>
          <CharString index="187">
            -115 hlineto
            113 -139 rlineto
            116 hlineto
            endchar
          </CharString>
          <CharString index="188">
            hlineto
            21 186 callsubr
            -21 vhcurveto
            -24 -78 59 hlineto
            return
          </CharString>
          <CharString index="189">
            29 -30 77 163 callgsubr
            return
          </CharString>
          <CharString index="190">
            103 callsubr
            -15 return
          </CharString>
          <CharString index="191">
            -8 177 337 rmoveto
            -24 callsubr
            152 -29 callgsubr
            49 -62 callgsubr
            -179 vlineto
            -109 294 rmoveto
            122 callgsubr
            -179 -20 callgsubr
            109 -139 hlineto
            -7 callsubr
            -45 -16 callgsubr
            79 -113 -95 -20 callgsubr
            109 418 callsubr
          </CharString>
          <CharString index="192">
            -67 callsubr
            endchar
          </CharString>
          <CharString index="193">
            -358 149 callsubr
            181 113 callsubr
            return
          </CharString>
          <CharString index="194">
            -103 callsubr
            180 -68 callsubr
            return
          </CharString>
          <CharString index="195">
            39 183 548 rmoveto
            117 -96 hlineto
            -48 8 -34 0 vhcurveto
            0 -18 43 -33 40 vhcurveto
            -97 -27 rmoveto
            43 -9 50 0 vhcurveto
            0 17 -40 30 -39 vhcurveto
            85 -113 rlineto
            433 callgsubr
            return
          </CharString>
          <CharString index="196">
            -26 callgsubr
            -33 57 callsubr
            return
          </CharString>
          <CharString index="197">
            rmoveto
            -21 209 callgsubr
            161 vlineto
            11 -14 18 -28 26 -43 66 -100 rcurveline
            -2 -4 -5 -1 -7 hhcurveto
            229 453 rmoveto
            -509 -83 327 -208 hlineto
            -89 6 -32 0 vhcurveto
            -60 90 -61 92 265 callsubr
            -193 482 callsubr
            38 hlineto
            -97 -149 363 callgsubr
            102 161 rlineto
            -107 -92 callsubr
          </CharString>
          <CharString index="198">
            29 callgsubr
            -187 94 callsubr
            return
          </CharString>
          <CharString index="199">
            hlineto
            -21 -40 callgsubr
            return
          </CharString>
          <CharString index="200">
            rmoveto
            -116 -105 116 hlineto
            -204 105 rmoveto
            -116 -105 116 hlineto
            return
          </CharString>
          <CharString index="201">
            hlineto
            -62 30 -29 63 vhcurveto
            103 hlineto
            -103 249 callgsubr
            return
          </CharString>
          <CharString index="202">
            vlineto
            15 -4 11 -7 8 vhcurveto
            return
          </CharString>
          <CharString index="203">
            rmoveto
            -95 callgsubr
            94 313 callsubr
            -122 vlineto
            447 callsubr
            75 -152 234 callgsubr
            -92 callsubr
          </CharString>
          <CharString index="204">
            rmoveto
            -626 -83 444 -215 -91 51 hlineto
            61 -28 34 -77 vhcurveto
            -129 -82 93 37 callgsubr
            -22 hvcurveto
            -107 401 callsubr
            -25 -48 callgsubr
            18 -113 -28 vlineto
            -71 141 callgsubr
            82 32 29 69 1 hvcurveto
            91 -5 hlineto
            -3 callsubr
            -92 callsubr
          </CharString>
          <CharString index="205">
            57 -28 28 -57 vhcurveto
            -90 hlineto
            -28 -5 5 28 hvcurveto
            23 -114 -54 vlineto
            -57 28 -28 57 vhcurveto
            90 249 callsubr
            -27 return
          </CharString>
          <CharString index="206">
            -109 -20 631 rmoveto
            -83 349 83 vlineto
            -174 -442 rmoveto
            427 callgsubr
            69 -112 rcurveline
            -97 -94 callsubr
            -114 199 rmoveto
            150 callsubr
            67 hlineto
            -97 -132 rlineto
            120 hlineto
            96 134 rlineto
            83 vlineto
            -14 14 -33 78 -29 45 -61 101 rcurveline
            219 callsubr
            return
          </CharString>
          <CharString index="207">
            -109 hlineto
            23 -57 24 -54 13 -37 23 -41 rlinecurve
            -4 hlineto
            -28 44 -27 36 -50 59 -43 50 rcurveline
            return
          </CharString>
          <CharString index="208">
            rmoveto
            -95 callgsubr
            136 51 callgsubr
            return
          </CharString>
          <CharString index="209">
            -84 -143 181 callsubr
            143 rlineto
            return
          </CharString>
          <CharString index="210">
            43 callgsubr
            -15 return
          </CharString>
          <CharString index="211">
            -103 callsubr
            178 vlineto
            11 -14 return
          </CharString>
          <CharString index="212">
            264 callgsubr
            29 495 callsubr
            -35 29 -67 vhcurveto
            -62 hlineto
            -20 -14 378 callgsubr
            81 vlineto
            endchar
          </CharString>
          <CharString index="213">
            -78 229 callsubr
            return
          </CharString>
          <CharString index="214">
            -114 -376 hlineto
            198 callgsubr
            return
          </CharString>
          <CharString index="215">
            62 118 60 -118 rlineto
            101 hlineto
            -83 145 rlineto
            54 8 20 29 52 vvcurveto
            -70 callsubr
            return
          </CharString>
          <CharString index="216">
            435 callsubr
            103 vlineto
            26 5 5 26 vhcurveto
            61 -134 hlineto
            197 callsubr
            return
          </CharString>
          <CharString index="217">
            63 230 callgsubr
            return
          </CharString>
          <CharString index="218">
            rmoveto
            214 226 rlineto
            124 vlineto
            -332 -350 rlineto
            22 298 109 callsubr
            -229 396 rmoveto
            -83 257 -69 -82 vlineto
            357 callsubr
            133 83 vlineto
            endchar
          </CharString>
          <CharString index="219">
            -100 callgsubr
            371 234 rmoveto
            return
          </CharString>
          <CharString index="220">
            vlineto
            430 callsubr
            return
          </CharString>
          <CharString index="221">
            -26 callgsubr
            -36 -94 callsubr
            return
          </CharString>
          <CharString index="222">
            -61 29 163 callsubr
            return
          </CharString>
          <CharString index="223">
            hlineto
            -23 -7 -5 -22 vhcurveto
            -27 -48 callgsubr
            290 -113 -154 472 callsubr
            -61 101 rlineto
            75 247 callsubr
            271 callgsubr
            34 -30 68 vhcurveto
            145 82 callgsubr
            387 callsubr
            return
          </CharString>
          <CharString index="224">
            45 -20 631 rmoveto
            -83 505 83 vlineto
            -442 -152 rmoveto
            -250 vlineto
            -71 32 -29 83 vhcurveto
            80 hlineto
            83 32 29 71 hvcurveto
            168 132 82 -245 -240 vlineto
            -72 callgsubr
            240 vlineto
            329 -212 rmoveto
            -317 -321 rlineto
            125 hlineto
            192 202 rlineto
            return
          </CharString>
          <CharString index="225">
            371 631 rmoveto
            -391 -83 391 hlineto
            -144 -364 rmoveto
            -95 callgsubr
            182 51 callgsubr
            return
          </CharString>
          <CharString index="226">
            rmoveto
            239 callsubr
            -36 -94 callsubr
            334 92 vlineto
            return
          </CharString>
          <CharString index="227">
            vlineto
            -22 -7 -5 -18 vhcurveto
            -31 -50 callsubr
            return
          </CharString>
          <CharString index="228">
            -83 68 50 callsubr
            return
          </CharString>
          <CharString index="229">
            119 callsubr
            251 hmoveto
            83 -521 272 callgsubr
            109 82 -97 395 callgsubr
            vlineto
            endchar
          </CharString>
          <CharString index="230">
            8 377 336 callgsubr
            71 83 -468 -83 283 -69 -109 53 callgsubr
            -44 vlineto
            -62 164 callgsubr
            98 -11 callgsubr
            -24 -46 callsubr
            -75 hlineto
            -19 -6 5 21 hvcurveto
            19 -114 -49 vlineto
            -36 16 51 callsubr
            -16 -16 -33 vvcurveto
            return
          </CharString>
          <CharString index="231">
            -290 vlineto
            -86 callgsubr
            84 return
          </CharString>
          <CharString index="232">
            168 callgsubr
            181 -21 callsubr
            return
          </CharString>
          <CharString index="233">
            134 347 84 rmoveto
            326 callsubr
            253 83 -598 287 callsubr
            hlineto
            return
          </CharString>
          <CharString index="234">
            112 callsubr
            -618 -83 436 -69 -277 hlineto
            153 callsubr
          </CharString>
          <CharString index="235">
            -44 callsubr
            227 callsubr
            vlineto
            endchar
          </CharString>
          <CharString index="236">
            -182 hlineto
            1 -83 rlineto
            -353 vlineto
            -57 callgsubr
            return
          </CharString>
          <CharString index="237">
            -358 hlineto
            -23 -8 -6 -21 394 callsubr
            180 vlineto
            267 callsubr
            return
          </CharString>
          <CharString index="238">
            hlineto
            62 -28 34 -78 vhcurveto
            -97 236 callgsubr
            -56 113 43 -91 callsubr
            27 hlineto
            return
          </CharString>
          <CharString index="239">
            rmoveto
            454 callgsubr
            return
          </CharString>
          <CharString index="240">
            hlineto
            78 -20 callsubr
            return
          </CharString>
          <CharString index="241">
            405 callsubr
            251 hmoveto
            83 -521 60 callsubr
            333 vlineto
            22 171 callgsubr
            109 83 -97 hlineto
            -20 -13 -4 -9 -8 hvcurveto
            116 vlineto
            endchar
          </CharString>
          <CharString index="242">
            175 callgsubr
            -30 45 vhcurveto
            return
          </CharString>
          <CharString index="243">
            216 93 callgsubr
            return
          </CharString>
          <CharString index="244">
            177 callgsubr
            -63 return
          </CharString>
          <CharString index="245">
            -21 158 401 rmoveto
            142 203 88 -317 -318 178 vlineto
            250 callgsubr
            -171 vlineto
            142 callsubr
            -38 -16 callgsubr
            92 -116 -108 -20 callgsubr
            107 3 callsubr
            203 vlineto
            62 -32 37 -77 vhcurveto
            endchar
          </CharString>
          <CharString index="246">
            rmoveto
            113 137 rlineto
            -106 hlineto
            -86 -137 rlineto
            52 137 rmoveto
            -106 hlineto
            -86 -137 rlineto
            79 hlineto
            return
          </CharString>
          <CharString index="247">
            -23 -8 -6 248 callgsubr
            return
          </CharString>
          <CharString index="248">
            -81 callgsubr
            -61 164 callgsubr
            85 -63 -73 445 callsubr
            442 callgsubr
            49 return
          </CharString>
          <CharString index="249">
            -21 243 callgsubr
            return
          </CharString>
          <CharString index="250">
            33 -30 82 vhcurveto
            return
          </CharString>
          <CharString index="251">
            -52 callsubr
            68 vlineto
            endchar
          </CharString>
          <CharString index="252">
            rmoveto
            160 callgsubr
            return
          </CharString>
          <CharString index="253">
            254 callgsubr
            181 -21 callsubr
            return
          </CharString>
          <CharString index="254">
            -94 callsubr
            94 -65 callsubr
            44 hlineto
            return
          </CharString>
          <CharString index="255">
            hlineto
            -21 -6 6 20 hvcurveto
            30 vlineto
            20 511 callsubr
            return
          </CharString>
          <CharString index="256">
            hlineto
            114 callsubr
            return
          </CharString>
          <CharString index="257">
            271 callgsubr
            12 callgsubr
            return
          </CharString>
          <CharString index="258">
            367 vlineto
            23 8 7 return
          </CharString>
          <CharString index="259">
            54 callsubr
            78 26 34 62 hvcurveto
            67 169 callgsubr
            -512 -359 101 callsubr
            return
          </CharString>
          <CharString index="260">
            -78 -28 -29 -62 hvcurveto
            -210 85 callgsubr
          </CharString>
          <CharString index="261">
            -54 0 vhcurveto
            0 -18 52 -33 63 vhcurveto
            -66 -215 rmoveto
            -31 callgsubr
            return
          </CharString>
          <CharString index="262">
            61 callgsubr
            163 -43 callgsubr
            -187 482 callsubr
            65 hlineto
            24 15 5 11 10 hvcurveto
            -27 16 33 -12 52 hhcurveto
            386 callgsubr
            219 return
          </CharString>
          <CharString index="263">
            rmoveto
            197 callsubr
            -42 157 callsubr
            80 24 callsubr
            return
          </CharString>
          <CharString index="264">
            hlineto
            25 callgsubr
            return
          </CharString>
          <CharString index="265">
            364 callsubr
            -28 29 return
          </CharString>
          <CharString index="266">
            -82 73 hlineto
            -9 -8 -5 -12 -19 193 callsubr
            return
          </CharString>
          <CharString index="267">
            -288 451 callgsubr
            114 return
          </CharString>
          <CharString index="268">
            rmoveto
            94 hlineto
            113 137 rlineto
            -121 hlineto
            return
          </CharString>
          <CharString index="269">
            500 callsubr
            -30 29 -77 2 vhcurveto
            69 return
          </CharString>
          <CharString index="270">
            -30 77 227 callgsubr
            return
          </CharString>
          <CharString index="271">
            -83 176 320 callgsubr
            return
          </CharString>
          <CharString index="272">
            68 vhcurveto
            -58 callsubr
            return
          </CharString>
          <CharString index="273">
            88 rmoveto
            15 callsubr
            return
          </CharString>
          <CharString index="274">
            -193 -290 hlineto
            -28 callsubr
            -113 return
          </CharString>
          <CharString index="275">
            -221 156 hmoveto
            491 -113 -491 vlineto
            return
          </CharString>
          <CharString index="276">
            -30 270 callgsubr
            return
          </CharString>
          <CharString index="277">
            hlineto
            250 callgsubr
            return
          </CharString>
          <CharString index="278">
            -106 callgsubr
            279 -66 vlineto
            return
          </CharString>
          <CharString index="279">
            436 callsubr
            75 -397 -92 callsubr
          </CharString>
          <CharString index="280">
            -70 12 callgsubr
            -17 callsubr
            -91 113 return
          </CharString>
          <CharString index="281">
            -24 -50 callsubr
            return
          </CharString>
          <CharString index="282">
            vlineto
            -89 callsubr
            -227 vlineto
            -61 28 -30 77 339 callgsubr
            196 253 callsubr
            -6 -22 hvcurveto
            return
          </CharString>
          <CharString index="283">
            204 hlineto
            -215 -455 rlineto
            -88 328 88 -210 vlineto
            215 455 rlineto
            return
          </CharString>
          <CharString index="284">
            -20 -13 378 callgsubr
            return
          </CharString>
          <CharString index="285">
            -47 -25 -20 -44 hvcurveto
            -18 -4 vlineto
            26 -1 -19 18 -43 hhcurveto
            -293 hlineto
            25 callsubr
            -68 114 46 vlineto
            28 5 5 28 vhcurveto
            219 407 callgsubr
            83 -68 return
          </CharString>
          <CharString index="286">
            rmoveto
            20 5 6 22 vhcurveto
            21 hlineto
            21 6 -6 -20 hvcurveto
            -136 vlineto
            -20 -6 -6 -21 vhcurveto
            -21 hlineto
            -22 -5 6 20 hvcurveto
            return
          </CharString>
          <CharString index="287">
            rmoveto
            -23 -8 -5 -21 52 callgsubr
            return
          </CharString>
          <CharString index="288">
            -14 callsubr
            -82 return
          </CharString>
          <CharString index="289">
            vlineto
            475 callgsubr
            return
          </CharString>
          <CharString index="290">
            36 5 -6 -27 hvcurveto
            return
          </CharString>
          <CharString index="291">
            rmoveto
            89 callgsubr
            85 170 callgsubr
            -17 108 rmoveto
            -96 hlineto
            392 callgsubr
            return
          </CharString>
          <CharString index="292">
            -83 68 -210 hlineto
            1 callgsubr
            -32 vvcurveto
            -134 vlineto
            377 callsubr
            133 437 callgsubr
            134 vlineto
            32 412 callsubr
            16 32 vvcurveto
            return
          </CharString>
          <CharString index="293">
            6 294 callsubr
            -6 -5 return
          </CharString>
          <CharString index="294">
            -95 callsubr
            75 vlineto
            23 348 callsubr
            99 -81 callsubr
            return
          </CharString>
          <CharString index="295">
            -83 269 -69 -95 207 callgsubr
            -62 75 callgsubr
            return
          </CharString>
          <CharString index="296">
            -83 63 -370 hlineto
            0 callsubr
            370 return
          </CharString>
          <CharString index="297">
            -359 rmoveto
            -95 callgsubr
            return
          </CharString>
          <CharString index="298">
            vlineto
            -22 -6 -5 -21 vhcurveto
            -24 -78 59 133 callsubr
            return
          </CharString>
          <CharString index="299">
            381 631 rmoveto
            -401 -83 401 hlineto
            return
          </CharString>
          <CharString index="300">
            vvcurveto
            226 callsubr
            return
          </CharString>
          <CharString index="301">
            hlineto
            183 callsubr
            return
          </CharString>
          <CharString index="302">
            270 callsubr
            -68 vhcurveto
            return
          </CharString>
          <CharString index="303">
            rmoveto
            142 callsubr
            return
          </CharString>
          <CharString index="304">
            -23 -35 callsubr
            return
          </CharString>
          <CharString index="305">
            rmoveto
            197 callsubr
            -34 -48 callgsubr
            115 -94 callgsubr
            63 hlineto
            -409 -141 149 callgsubr
            115 84 callgsubr
            return
          </CharString>
          <CharString index="306">
            vvcurveto
            286 callsubr
            -442 -83 262 -69 -88 hlineto
            134 callgsubr
            -288 vlineto
            return
          </CharString>
          <CharString index="307">
            422 callsubr
            151 hlineto
            -96 -647 rmoveto
            -19 -7 5 21 hvcurveto
            41 vlineto
            25 5 6 22 1 vhcurveto
            99 -71 hlineto
            -22 -8 -6 -19 vhcurveto
            278 647 rmoveto
            83 return
          </CharString>
          <CharString index="308">
            hlineto
            79 37 -2 callsubr
            202 callgsubr
          </CharString>
          <CharString index="309">
            -77 -90 callsubr
            return
          </CharString>
          <CharString index="310">
            -420 -402 826 rmoveto
            130 -117 55 -49 29 -21 25 -15 rlinecurve
            110 hlineto
            -32 202 337 callsubr
            return
          </CharString>
          <CharString index="311">
            hlineto
            -137 195 rlineto
            -136 hlineto
            63 -87 34 -45 31 -36 30 -27 rlinecurve
            return
          </CharString>
          <CharString index="312">
            -87 hlineto
            -78 callsubr
            return
          </CharString>
          <CharString index="313">
            113 548 69 hlineto
            endchar
          </CharString>
          <CharString index="314">
            hlineto
            122 callgsubr
            return
          </CharString>
          <CharString index="315">
            182 83 rmoveto
            return
          </CharString>
          <CharString index="316">
            -358 hlineto
            282 callgsubr
            369 callgsubr
            24 82 return
          </CharString>
          <CharString index="317">
            hlineto
            148 callgsubr
            return
          </CharString>
          <CharString index="318">
            rmoveto
            -69 callgsubr
            -142 -48 callgsubr
            return
          </CharString>
          <CharString index="319">
            178 vlineto
            11 -14 20 -37 return
          </CharString>
          <CharString index="320">
            -54 callsubr
            69 vlineto
            endchar
          </CharString>
          <CharString index="321">
            405 callgsubr
            71 vhcurveto
            70 hlineto
            39 32 20 26 11 hvcurveto
            -26 12 30 -20 46 hhcurveto
            73 hlineto
            76 33 36 63 hvcurveto
            50 -112 -36 vlineto
            -7 callsubr
            -42 -9 callgsubr
            98 return
          </CharString>
          <CharString index="322">
            hlineto
            -26 502 callsubr
            122 67 vlineto
            76 31 29 66 hvcurveto
            188 28 callsubr
            return
          </CharString>
          <CharString index="323">
            rmoveto
            116 105 -116 hlineto
            204 -105 rmoveto
            116 105 -116 hlineto
            return
          </CharString>
          <CharString index="324">
            430 callsubr
            -59 425 callsubr
            return
          </CharString>
          <CharString index="325">
            15 6 8 12 vhcurveto
            23 34 -43 50 hhcurveto
            return
          </CharString>
          <CharString index="326">
            74 247 callsubr
            return
          </CharString>
          <CharString index="327">
            285 callsubr
            -15 return
          </CharString>
          <CharString index="328">
            160 callgsubr
            377 callsubr
            78 -63 -68 445 callsubr
            7 5 21 vhcurveto
            44 return
          </CharString>
          <CharString index="329">
            340 callgsubr
            -105 347 callsubr
            -32 vvcurveto
            -116 512 callsubr
            64 vhcurveto
            64 hlineto
            -103 249 callgsubr
            119 188 rlineto
            return
          </CharString>
          <CharString index="330">
            255 callsubr
            84 -9 vlineto
            271 callgsubr
            return
          </CharString>
          <CharString index="331">
            vlineto
            377 callsubr
            88 437 callgsubr
            return
          </CharString>
          <CharString index="332">
            194 callsubr
            -107 8 callsubr
            return
          </CharString>
          <CharString index="333">
            469 callsubr
            12 callgsubr
            return
          </CharString>
          <CharString index="334">
            80 -397 113 548 69 return
          </CharString>
          <CharString index="335">
            -47 -94 callsubr
            return
          </CharString>
          <CharString index="336">
            -28 -30 -61 hvcurveto
            return
          </CharString>
          <CharString index="337">
            -15 -26 -3 hvcurveto
            return
          </CharString>
          <CharString index="338">
            408 callgsubr
            359 92 vlineto
            -270 489 callsubr
            310 callsubr
            return
          </CharString>
          <CharString index="339">
            -15 405 211 rmoveto
            -60 122 -109 -122 -124 hlineto
            208 420 rlineto
            -115 hlineto
            -198 -411 rlineto
            -98 229 -122 109 122 60 vlineto
            endchar
          </CharString>
          <CharString index="340">
            vhcurveto
            -42 259 callgsubr
            return
          </CharString>
          <CharString index="341">
            -73 callgsubr
            184 callgsubr
            return
          </CharString>
          <CharString index="342">
            vlineto
            213 callgsubr
            return
          </CharString>
          <CharString index="343">
            66 -37 28 -61 vhcurveto
            -141 472 callgsubr
            5 5 29 vhcurveto
            43 407 callgsubr
            return
          </CharString>
          <CharString index="344">
            57 callsubr
            170 162 callgsubr
            -93 callgsubr
            -210 vlineto
            377 callsubr
            return
          </CharString>
          <CharString index="345">
            494 callsubr
            463 474 callsubr
            -631 240 vlineto
            161 callgsubr
          </CharString>
          <CharString index="346">
            -23 362 callgsubr
            return
          </CharString>
          <CharString index="347">
            -52 callgsubr
            -86 63 callsubr
            30 8 2 41 vhcurveto
            98 hlineto
            return
          </CharString>
          <CharString index="348">
            173 callsubr
            548 68 vlineto
            endchar
          </CharString>
          <CharString index="349">
            113 187 callgsubr
          </CharString>
          <CharString index="350">
            -69 -33 -28 -63 hvcurveto
            -67 347 callsubr
            -33 vvcurveto
            -65 vlineto
            -62 33 -29 69 vhcurveto
            255 83 -229 -94 callsubr
            return
          </CharString>
          <CharString index="351">
            rmoveto
            151 67 83 -442 258 callsubr
            return
          </CharString>
          <CharString index="352">
            hlineto
            78 28 246 callsubr
            return
          </CharString>
          <CharString index="353">
            44 callsubr
            117 483 callgsubr
            -22 -6 -5 return
          </CharString>
          <CharString index="354">
            78 -119 -93 callgsubr
            return
          </CharString>
          <CharString index="355">
            -288 vlineto
            -61 28 -30 return
          </CharString>
          <CharString index="356">
            hlineto
            28 5 -5 -28 hvcurveto
            return
          </CharString>
          <CharString index="357">
            -23 363 callsubr
            return
          </CharString>
          <CharString index="358">
            -87 hlineto
            -33 -77 callgsubr
            -102 hlineto
            -68 -34 -29 -71 hvcurveto
            -189 vlineto
            114 callsubr
            return
          </CharString>
          <CharString index="359">
            432 rmoveto
            -98 116 98 hlineto
            -211 return
          </CharString>
          <CharString index="360">
            -42 callgsubr
            5 return
          </CharString>
          <CharString index="361">
            -94 callgsubr
            108 hlineto
            77 29 30 62 hvcurveto
            50 vlineto
            62 -29 30 -77 vhcurveto
            -98 437 callsubr
            18 -91 callsubr
            endchar
          </CharString>
          <CharString index="362">
            -290 hlineto
            -86 callgsubr
            return
          </CharString>
          <CharString index="363">
            -52 callgsubr
            -141 hlineto
            -21 -8 -33 callgsubr
            91 hlineto
            return
          </CharString>
          <CharString index="364">
            -24 279 700 rmoveto
            -283 -803 rlineto
            101 hlineto
            283 803 rlineto
            endchar
          </CharString>
          <CharString index="365">
            -83 262 383 callgsubr
            return
          </CharString>
          <CharString index="366">
            hlineto
            83 32 -2 callsubr
            return
          </CharString>
          <CharString index="367">
            209 callgsubr
            148 return
          </CharString>
          <CharString index="368">
            195 211 callsubr
            155 126 callgsubr
            74 133 callgsubr
            return
          </CharString>
          <CharString index="369">
            -223 hlineto
            -89 6 -32 30 callgsubr
            return
          </CharString>
          <CharString index="370">
            196 634 -196 hlineto
            236 -185 rmoveto
            196 185 -196 hlineto
            return
          </CharString>
          <CharString index="371">
            -164 65 callgsubr
            return
          </CharString>
          <CharString index="372">
            rlineto
            219 callsubr
            return
          </CharString>
          <CharString index="373">
            280 callsubr
            83 -68 return
          </CharString>
          <CharString index="374">
            27 8 1 36 vhcurveto
            16 82 return
          </CharString>
          <CharString index="375">
            26 6 -6 -26 hvcurveto
            return
          </CharString>
          <CharString index="376">
            69 vlineto
            21 6 5 return
          </CharString>
          <CharString index="377">
            vlineto
            71 -34 29 return
          </CharString>
          <CharString index="378">
            452 callgsubr
            -294 409 callsubr
            669 return
          </CharString>
          <CharString index="379">
            vlineto
            -36 callsubr
            -65 vlineto
            -25 -45 callgsubr
            -44 hlineto
            -21 return
          </CharString>
          <CharString index="380">
            492 callsubr
            vlineto
            endchar
          </CharString>
          <CharString index="381" raw="1">
            f75107a0 0b  
          </CharString>
          <CharString index="382">
            301 callsubr
            33 -30 83 vhcurveto
            return
          </CharString>
          <CharString index="383">
            -64 callsubr
            97 -349 -92 callsubr
          </CharString>
          <CharString index="384">
            rmoveto
            162 callgsubr
            53 callgsubr
            return
          </CharString>
          <CharString index="385">
            396 callsubr
            82 33 30 70 hvcurveto
            return
          </CharString>
          <CharString index="386">
            63 hlineto
            20 -46 callgsubr
            return
          </CharString>
          <CharString index="387">
            443 callsubr
            113 548 68 return
          </CharString>
          <CharString index="388">
            -69 282 callsubr
            return
          </CharString>
          <CharString index="389">
            -277 -93 callgsubr
            return
          </CharString>
          <CharString index="390">
            hlineto
            106 callsubr
            return
          </CharString>
          <CharString index="391">
            vlineto
            355 callsubr
            return
          </CharString>
          <CharString index="392">
            289 callsubr
            -16 return
          </CharString>
          <CharString index="393">
            114 -113 -103 vlineto
            -23 -8 -5 -21 vhcurveto
            -27 392 callsubr
            67 83 return
          </CharString>
          <CharString index="394">
            -12 callsubr
            179 return
          </CharString>
          <CharString index="395">
            rmoveto
            88 -67 88 -113 -88 -49 -88 49 -304 -20 callgsubr
            70 91 -37 -9 callgsubr
            285 vlineto
            endchar
          </CharString>
          <CharString index="396">
            -3 vlineto
            -26 -3 return
          </CharString>
          <CharString index="397">
            340 callgsubr
            -114 48 callsubr
            return
          </CharString>
          <CharString index="398">
            303 callgsubr
            19 8 callgsubr
            548 68 vlineto
            endchar
          </CharString>
          <CharString index="399">
            91 84 -56 258 callgsubr
            return
          </CharString>
          <CharString index="400">
            -210 192 callgsubr
            return
          </CharString>
          <CharString index="401">
            -5 -23 509 callgsubr
            -22 return
          </CharString>
          <CharString index="402">
            87 259 callsubr
            return
          </CharString>
          <CharString index="403">
            358 callgsubr
            50 callgsubr
            return
          </CharString>
          <CharString index="404">
            36 5 -27 callsubr
            return
          </CharString>
          <CharString index="405">
            -5 -21 vhcurveto
            -100 -124 hlineto
            34 callgsubr
            return
          </CharString>
          <CharString index="406">
            vlineto
            -70 27 callsubr
            return
          </CharString>
          <CharString index="407">
            469 callgsubr
            -7 -5 return
          </CharString>
          <CharString index="408">
            76 callgsubr
            80 -9 vlineto
            271 callgsubr
            return
          </CharString>
          <CharString index="409">
            312 callsubr
            endchar
          </CharString>
          <CharString index="410">
            368 callsubr
            271 callgsubr
            return
          </CharString>
          <CharString index="411">
            -166 132 callsubr
            return
          </CharString>
          <CharString index="412">
            -370 hlineto
            -70 return
          </CharString>
          <CharString index="413">
            -95 callsubr
            80 322 callsubr
            83 -53 -94 callsubr
            83 481 callsubr
            return
          </CharString>
          <CharString index="414">
            37 callsubr
            -22 hvcurveto
            -71 401 callsubr
            -63 -75 callgsubr
            return
          </CharString>
          <CharString index="415">
            -32 rmoveto
            481 callgsubr
            323 hlineto
            48 21 24 42 vhcurveto
            42 98 -18 hlineto
            -48 -30 -29 -36 -10 hvcurveto
            endchar
          </CharString>
          <CharString index="416">
            543 -115 -631 283 88 vlineto
            endchar
          </CharString>
          <CharString index="417">
            -353 vlineto
            -69 callgsubr
            return
          </CharString>
          <CharString index="418">
            501 callsubr
            -72 vhcurveto
            endchar
          </CharString>
          <CharString index="419">
            rmoveto
            -412 vlineto
            -133 412 rlineto
            -111 -631 106 418 hlineto
            135 -418 rlineto
            108 631 hlineto
            return
          </CharString>
          <CharString index="420">
            vlineto
            22 -88 callgsubr
            53 hlineto
            371 234 rmoveto
            -618 -83 436 281 callsubr
            return
          </CharString>
          <CharString index="421">
            rmoveto
            -48 -30 -29 -36 -10 hvcurveto
            63 481 callgsubr
            323 vlineto
            48 21 24 42 vhcurveto
            42 98 hlineto
            endchar
          </CharString>
          <CharString index="422">
            vlineto
            335 callsubr
            return
          </CharString>
          <CharString index="423">
            rmoveto
            -22 -6 104 callsubr
            20 -37 25 -43 return
          </CharString>
          <CharString index="424">
            -358 hlineto
            115 callgsubr
            return
          </CharString>
          <CharString index="425">
            353 callsubr
            -42 callsubr
            return
          </CharString>
          <CharString index="426">
            269 631 rmoveto
            -289 -83 289 hlineto
            return
          </CharString>
          <CharString index="427">
            171 callgsubr
            35 477 callsubr
            return
          </CharString>
          <CharString index="428">
            hlineto
            375 callsubr
            return
          </CharString>
          <CharString index="429">
            -65 callsubr
            53 return
          </CharString>
          <CharString index="430">
            hlineto
            -21 -6 5 20 hvcurveto
            return
          </CharString>
          <CharString index="431">
            vlineto
            21 5 7 return
          </CharString>
          <CharString index="432">
            -76 callsubr
            252 return
          </CharString>
          <CharString index="433">
            -157 -76 callsubr
            return
          </CharString>
          <CharString index="434">
            rmoveto
            -322 -88 176 callsubr
            endchar
          </CharString>
          <CharString index="435">
            hlineto
            332 callsubr
          </CharString>
          <CharString index="436">
            217 callgsubr
            461 callsubr
            return
          </CharString>
          <CharString index="437">
            190 rmoveto
            115 callgsubr
            186 267 callgsubr
            78 return
          </CharString>
          <CharString index="438">
            -104 387 callgsubr
            -42 417 callsubr
          </CharString>
          <CharString index="439">
            0 callsubr
            370 84 274 callgsubr
          </CharString>
          <CharString index="440">
            74 78 -119 hlineto
            -56 -31 -15 -32 -12 hvcurveto
            -98 116 return
          </CharString>
          <CharString index="441">
            24 callgsubr
            35 24 14 28 10 hvcurveto
            return
          </CharString>
          <CharString index="442">
            -61 164 callgsubr
            59 84 143 callgsubr
            22 hvcurveto
            return
          </CharString>
          <CharString index="443">
            370 rmoveto
            22 7 5 21 70 callgsubr
            return
          </CharString>
          <CharString index="444">
            rlineto
            100 callsubr
            return
          </CharString>
          <CharString index="445">
            hlineto
            34 callgsubr
            163 hlineto
            18 13 4 8 8 hvcurveto
            -81 -92 callsubr
          </CharString>
          <CharString index="446">
            113 548 68 hlineto
            endchar
          </CharString>
          <CharString index="447">
            hlineto
            78 28 29 62 hvcurveto
            return
          </CharString>
          <CharString index="448">
            -36 77 vhcurveto
            113 hlineto
            return
          </CharString>
          <CharString index="449">
            -16 -15 -33 vvcurveto
            return
          </CharString>
          <CharString index="450">
            vlineto
            114 callsubr
            186 267 callgsubr
            78 return
          </CharString>
          <CharString index="451">
            421 callsubr
            181 440 callgsubr
            return
          </CharString>
          <CharString index="452">
            706 rmoveto
            79 -78 207 callgsubr
            -80 114 67 vlineto
            21 6 4 21 vhcurveto
            endchar
          </CharString>
          <CharString index="453">
            hlineto
            -26 -5 5 26 hvcurveto
            24 vlineto
            26 5 5 26 vhcurveto
            return
          </CharString>
          <CharString index="454">
            vlineto
            1 callgsubr
            return
          </CharString>
          <CharString index="455">
            -97 callgsubr
            69 83 -69 -94 callsubr
            return
          </CharString>
          <CharString index="456">
            32 -8 -25 16 -38 351 callsubr
            return
          </CharString>
          <CharString index="457">
            -29 callgsubr
            30 hlineto
            return
          </CharString>
          <CharString index="458">
            hhcurveto
            -31 400 callgsubr
            return
          </CharString>
          <CharString index="459">
            -548 113 548 68 vlineto
            return
          </CharString>
          <CharString index="460">
            -91 callsubr
            24 78 return
          </CharString>
          <CharString index="461">
            80 437 callgsubr
            return
          </CharString>
          <CharString index="462">
            -70 33 -30 83 vhcurveto
            return
          </CharString>
          <CharString index="463">
            -22 -35 callsubr
            return
          </CharString>
          <CharString index="464">
            203 callgsubr
            -131 vlineto
            -71 143 callsubr
            89 hlineto
            82 33 30 71 hvcurveto
            295 return
          </CharString>
          <CharString index="465">
            vlineto
            -65 28 -29 56 300 callgsubr
            121 hlineto
            404 callsubr
            -109 114 return
          </CharString>
          <CharString index="466">
            -76 callgsubr
            28 247 callgsubr
            35 -29 67 vhcurveto
            return
          </CharString>
          <CharString index="467">
            -124 hlineto
            -126 -314 125 -317 rlineto
            124 hlineto
            -129 317 rlineto
            endchar
          </CharString>
          <CharString index="468">
            rmoveto
            -105 94 105 vlineto
            endchar
          </CharString>
          <CharString index="469">
            181 83 rmoveto
            return
          </CharString>
          <CharString index="470">
            -8 -7 -22 vhcurveto
            return
          </CharString>
          <CharString index="471">
            117 vlineto
            62 return
          </CharString>
          <CharString index="472">
            hlineto
            20 13 4 9 8 hvcurveto
            -91 451 callsubr
            return
          </CharString>
          <CharString index="473">
            hlineto
            184 callgsubr
            94 vlineto
            23 442 callgsubr
            44 170 callgsubr
            -37 return
          </CharString>
          <CharString index="474">
            -34 -62 hvcurveto
            -56 114 105 callgsubr
            28 -11 callgsubr
            -106 return
          </CharString>
          <CharString index="475">
            101 265 callsubr
            return
          </CharString>
          <CharString index="476">
            -22 -8 -6 -19 vhcurveto
            -64 hlineto
            -20 209 callgsubr
            return
          </CharString>
          <CharString index="477">
            -24 -7 -5 -22 vhcurveto
            -84 hlineto
            -22 -7 5 24 hvcurveto
            return
          </CharString>
          <CharString index="478">
            -82 72 321 callsubr
            return
          </CharString>
          <CharString index="479">
            hlineto
            -21 438 callgsubr
            vlineto
            return
          </CharString>
          <CharString index="480">
            -77 -2 -31 -29 -69 vvcurveto
            -279 vlineto
            return
          </CharString>
          <CharString index="481">
            hlineto
            -68 501 callgsubr
            return
          </CharString>
          <CharString index="482">
            -8 -8 -5 -13 -18 vvcurveto
            return
          </CharString>
          <CharString index="483">
            -70 467 callsubr
            return
          </CharString>
          <CharString index="484">
            -70 143 callsubr
            return
          </CharString>
          <CharString index="485">
            147 callsubr
            22 7 -5 -23 hvcurveto
            return
          </CharString>
          <CharString index="486">
            -21 -7 vlineto
            410 callgsubr
          </CharString>
          <CharString index="487">
            hlineto
            -36 66 rlineto
            51 -29 -20 17 -69 hhcurveto
            -58 71 hlineto
            285 callgsubr
            return
          </CharString>
          <CharString index="488">
            498 callsubr
            -489 -83 306 -69 -137 53 callgsubr
            return
          </CharString>
          <CharString index="489">
            29 -77 vhcurveto
            -57 437 callsubr
            50 -91 callsubr
            endchar
          </CharString>
          <CharString index="490">
            -76 -32 -36 -63 hvcurveto
            -79 -50 -88 50 -403 return
          </CharString>
          <CharString index="491">
            -223 hlineto
            -89 6 -32 175 callgsubr
            return
          </CharString>
          <CharString index="492">
            rmoveto
            303 79 -303 hlineto
            endchar
          </CharString>
          <CharString index="493">
            57 83 -424 -83 253 return
          </CharString>
          <CharString index="494">
            80 259 callsubr
            return
          </CharString>
          <CharString index="495">
            296 rmoveto
            -182 -213 return
          </CharString>
          <CharString index="496">
            436 callgsubr
            -61 return
          </CharString>
          <CharString index="497">
            -97 callgsubr
            66 return
          </CharString>
          <CharString index="498">
            252 callsubr
            -359 rmoveto
            197 callsubr
            return
          </CharString>
          <CharString index="499">
            -75 callgsubr
            165 151 return
          </CharString>
          <CharString index="500">
            hlineto
            36 -12 callgsubr
            399 249 rmoveto
            return
          </CharString>
          <CharString index="501">
            vhcurveto
            228 callsubr
            return
          </CharString>
          <CharString index="502">
            79 callsubr
            80 return
          </CharString>
          <CharString index="503">
            299 callsubr
            80 hlineto
            return
          </CharString>
          <CharString index="504">
            115 rmoveto
            -7 callsubr
            return
          </CharString>
          <CharString index="505">
            vhcurveto
            386 callgsubr
            return
          </CharString>
          <CharString index="506">
            hlineto
            -78 -28 -30 -62 hvcurveto
            return
          </CharString>
          <CharString index="507">
            vlineto
            239 callsubr
            return
          </CharString>
          <CharString index="508">
            vlineto
            197 callsubr
            return
          </CharString>
          <CharString index="509">
            392 501 callsubr
            return
          </CharString>
          <CharString index="510">
            -182 hlineto
            1 -83 rlineto
            return
          </CharString>
          <CharString index="511">
            103 163 rlineto
            return
          </CharString>
          <CharString index="512">
            -8 callgsubr
            359 92 vlineto
            return
          </CharString>
          <CharString index="513">
            vlineto
            333 callgsubr
            113 return
          </CharString>
          <CharString index="514">
            vlineto
            -70 12 callgsubr
            150 callgsubr
            114 return
          </CharString>
          <CharString index="515">
            246 callsubr
            -19 vhcurveto
            -30 hlineto
            -21 return
          </CharString>
          <CharString index="516">
            42 callsubr
            112 return
          </CharString>
          <CharString index="517">
            7 23 vhcurveto
            56 -397 113 548 return
          </CharString>
          <CharString index="518">
            -83 68 -370 vlineto
            -70 12 callgsubr
            return
          </CharString>
          <CharString index="519">
            -15 15 -26 3 vhcurveto
            3 vlineto
            26 3 15 return
          </CharString>
          <CharString index="520">
            -26 -65 hvcurveto
            -46 vlineto
            return
          </CharString>
          <CharString index="521">
            -2 -103 -159 rcurveline
            122 hlineto
            103 295 callgsubr
            return
          </CharString>
          <CharString index="522">
            -54 vlineto
            -23 -6 -6 -23 vhcurveto
            -111 hlineto
            -23 -6 6 23 hvcurveto
            54 return
          </CharString>
          <CharString index="523">
            186 rmoveto
            -69 callgsubr
            -142 -94 callsubr
            return
          </CharString>
          <CharString index="524">
            57 callsubr
            endchar
          </CharString>
          <CharString index="525">
            hlineto
            161 callgsubr
          </CharString>
          <CharString index="526">
            450 callsubr
            vlineto
            endchar
          </CharString>
          <CharString index="527">
            5 -7 -21 hvcurveto
            return
          </CharString>
          <CharString index="528">
            -358 hlineto
            -61 callgsubr
            184 callgsubr
            return
          </CharString>
          <CharString index="529">
            -103 callsubr
            135 vlineto
            30 8 3 41 -2 vhcurveto
            -5 1 rlineto
            return
          </CharString>
          <CharString index="530">
            vhcurveto
            56 hlineto
            22 14 5 10 8 hvcurveto
            -116 111 548 return
          </CharString>
          <CharString index="531">
            5 22 hvcurveto
            57 -113 -71 vlineto
            -61 164 callgsubr
            101 hlineto
            return
          </CharString>
          <CharString index="532">
            hlineto
            134 callgsubr
            -193 vlineto
            return
          </CharString>
          <CharString index="533">
            53 callgsubr
            -193 vlineto
            return
          </CharString>
          <CharString index="534">
            479 callsubr
            -52 return
          </CharString>
          <CharString index="535">
            324 callsubr
            23 vhcurveto
            58 return
          </CharString>
          <CharString index="536">
            98 477 callgsubr
            return
          </CharString>
          <CharString index="537">
            -7 callgsubr
            24 82 return
          </CharString>
          <CharString index="538">
            -209 465 callgsubr
            return
          </CharString>
          <CharString index="539">
            rmoveto
            -122 -105 122 hlineto
            return
          </CharString>
          <CharString index="540">
            rmoveto
            -303 -79 303 hlineto
            return
          </CharString>
          <CharString index="541">
            669 -113 -669 vlineto
            return
          </CharString>
          <CharString index="542">
            rmoveto
            25 callgsubr
            return
          </CharString>
          <CharString index="543">
            9 callsubr
            219 return
          </CharString>
          <CharString index="544">
            hlineto
            -21 -7 5 21 hvcurveto
            return
          </CharString>
          <CharString index="545">
            -26 -6 -7 -26 vhcurveto
            -51 return
          </CharString>
          <CharString index="546">
            vlineto
            -22 468 callgsubr
            return
          </CharString>
          <CharString index="547">
            7 15 7 hvcurveto
            -15 return
          </CharString>
          <CharString index="548">
            -110 vlineto
            -66 return
          </CharString>
          <CharString index="549">
            -103 -158 rlineto
            return
          </CharString>
          <CharString index="550">
            -83 68 -548 return
          </CharString>
          <CharString index="551">
            -31 -36 -63 hvcurveto
            return
          </CharString>
          <CharString index="552">
            hlineto
            -63 -32 488 callsubr
            return
          </CharString>
          <CharString index="553">
            268 callsubr
            -131 494 callgsubr
            return
          </CharString>
          <CharString index="554">
            475 callgsubr
            131 return
          </CharString>
          <CharString index="555" raw="1">
            f8630af7 37069d98 8f0b 
          </CharString>
          <CharString index="556">
            -94 callsubr
            180 vlineto
            20 6 8 22 vhcurveto
            return
          </CharString>
          <CharString index="557">
            -56 5 vhcurveto
            70 return
          </CharString>
          <CharString index="558">
            436 callgsubr
            387 callgsubr
            return
          </CharString>
          <CharString index="559">
            hlineto
            36 4 504 callsubr
            return
          </CharString>
          <CharString index="560">
            vlineto
            168 callgsubr
            return
          </CharString>
          <CharString index="561">
            -130 159 -115 -159 -130 -84 130 return
          </CharString>
          <CharString index="562">
            rmoveto
            -201 38 vlineto
            81 141 rlineto
            60 vlineto
            endchar
          </CharString>
          <CharString index="563">
            -97 40 255 rmoveto
            243 83 -243 hlineto
            endchar
          </CharString>
          <CharString index="564">
            -179 vlineto
            -61 164 callgsubr
            return
          </CharString>
          <CharString index="565">
            -83 86 194 callsubr
            return
          </CharString>
          <CharString index="566">
            rmoveto
            -110 -693 110 hlineto
            return
          </CharString>
          <CharString index="567">
            -121 hlineto
            113 -137 rlineto
            return
          </CharString>
          <CharString index="568">
            -204 hlineto
            34 callgsubr
            return
          </CharString>
          <CharString index="569">
            -69 -88 207 callgsubr
            return
          </CharString>
          <CharString index="570" raw="1">
            f8700ad9 1e0b  
          </CharString>
          <CharString index="571">
            548 69 83 vlineto
            endchar
          </CharString>
          <CharString index="572">
            22 442 callgsubr
            return
          </CharString>
          <CharString index="573" raw="1">
            34077483 850b  
          </CharString>
          <CharString index="574">
            37 -30 79 vhcurveto
            return
          </CharString>
          <CharString index="575">
            vlineto
            78 28 34 return
          </CharString>
          <CharString index="576">
            -180 vlineto
            -70 return
          </CharString>
          <CharString index="577">
            rlineto
            112 hlineto
            return
          </CharString>
          <CharString index="578">
            rmoveto
            487 callsubr
            return
          </CharString>
          <CharString index="579">
            vlineto
            -89 6 -32 135 callsubr
            return
          </CharString>
          <CharString index="580">
            -23 -8 -6 -22 vhcurveto
            -32 -48 callgsubr
            return
          </CharString>
          <CharString index="581">
            90 -62 callgsubr
            -233 111 rmoveto
            return
          </CharString>
          <CharString index="582">
            vlineto
            23 8 -102 callsubr
            endchar
          </CharString>
          <CharString index="583">
            -173 vlineto
            -70 37 -30 return
          </CharString>
          <CharString index="584">
            hlineto
            21 6 -5 -23 hvcurveto
            return
          </CharString>
          <CharString index="585">
            vlineto
            62 -28 30 -78 vhcurveto
            return
          </CharString>
          <CharString index="586">
            vlineto
            -26 -7 -6 -25 vhcurveto
            return
          </CharString>
          <CharString index="587">
            vlineto
            21 4 7 23 vhcurveto
            return
          </CharString>
          <CharString index="588">
            vlineto
            30 8 2 41 vhcurveto
            return
          </CharString>
          <CharString index="589">
            vlineto
            356 callgsubr
            return
          </CharString>
          <CharString index="590">
            548 rmoveto
            83 return
          </CharString>
          <CharString index="591">
            -30 411 callgsubr
            return
          </CharString>
          <CharString index="592">
            479 rmoveto
            396 callgsubr
            return
          </CharString>
          <CharString index="593">
            431 callsubr
            -249 -83 68 return
          </CharString>
          <CharString index="594">
            -78 46 callsubr
            return
          </CharString>
          <CharString index="595">
            413 callsubr
            91 -1 rlineto
            33 vlineto
            23 return
          </CharString>
          <CharString index="596">
            -387 rmoveto
            399 callgsubr
            return
          </CharString>
          <CharString index="597">
            hlineto
            294 callgsubr
            return
          </CharString>
          <CharString index="598">
            104 467 callgsubr
            -660 -83 261 return
          </CharString>
          <CharString index="599">
            vvcurveto
            162 callsubr
            return
          </CharString>
          <CharString index="600">
            rmoveto
            397 89 -397 hlineto
            return
          </CharString>
          <CharString index="601">
            rmoveto
            -7 callsubr
            -90 return
          </CharString>
          <CharString index="602">
            44 callsubr
            210 vlineto
            71 return
          </CharString>
          <CharString index="603">
            -82 hlineto
            203 callgsubr
            return
          </CharString>
          <CharString index="604">
            -7 40 hhcurveto
            78 hlineto
            return
          </CharString>
          <CharString index="605">
            rmoveto
            151 69 83 return
          </CharString>
          <CharString index="606">
            rmoveto
            -73 66 73 vlineto
            return
          </CharString>
          <CharString index="607">
            279 vlineto
            69 return
          </CharString>
          <CharString index="608">
            vlineto
            63 -31 36 return
          </CharString>
          <CharString index="609">
            -7 7 26 hvcurveto
            return
          </CharString>
          <CharString index="610">
            -183 33 vlineto
            53 127 rlineto
            56 vlineto
            return
          </CharString>
          <CharString index="611">
            -6 -27 hvcurveto
            -78 -46 callsubr
            return
          </CharString>
          <CharString index="612">
            -8 hlineto
            -146 vlineto
            -71 32 -29 83 vhcurveto
            return
          </CharString>
          <CharString index="613" raw="1">
            f7771df7 090b  
          </CharString>
          <CharString index="614">
            25 50 hvcurveto
            47 -76 -38 vlineto
            -20 -6 -5 return
          </CharString>
          <CharString index="615">
            -349 242 callsubr
          </CharString>
          <CharString index="616">
            288 vlineto
            59 return
          </CharString>
          <CharString index="617" raw="1">
            079f9191 0b  
          </CharString>
          <CharString index="618">
            6 6 21 vhcurveto
            return
          </CharString>
          <CharString index="619">
            vlineto
            -62 30 -29 return
          </CharString>
        <CharString name=".notdef">
          90 0 vmoveto
          502 701 -502 hlineto
          51 -49 rmoveto
          400 -603 -400 hlineto
          200 253 rmoveto
          105 -209 rlineto
          60 hlineto
          -135 254 135 261 rlineto
          -60 hlineto
          -100 -206 rlineto
          -4 hlineto
          -105 206 rlineto
          -60 hlineto
          134 -255 -134 -260 rlineto
          60 hlineto
          100 209 rlineto
          endchar
        </CharString>
        <CharString name="A">
          11 160 218 rmoveto
          -56 callsubr
        </CharString>
        <CharString name="AE">
          214 204 225 rmoveto
          106 293 rlineto
          -293 vlineto
          111 -137 rmoveto
          191 155 89 -155 175 185 88 -359 vlineto
          -239 -631 rlineto
          114 hlineto
          50 139 rlineto
          138 -139 304 88 hlineto
          endchar
        </CharString>
        <CharString name="Aacute">
          11 374 800 46 callgsubr
          -101 -445 rmoveto
          -56 callsubr
        </CharString>
        <CharString name="Abreve">
          11 263 663 rmoveto
          76 32 36 63 hvcurveto
          38 -102 102 callgsubr
          -1 -445 rmoveto
          -56 callsubr
        </CharString>
        <CharString name="Acircumflex">
          11 212 740 39 callsubr
          -445 vmoveto
          -56 callsubr
        </CharString>
        <CharString name="Adieresis">
          11 372 767 93 callsubr
          -8 -444 rmoveto
          -56 callsubr
        </CharString>
        <CharString name="Agrave">
          11 253 663 120 callgsubr
          1 -445 rmoveto
          -56 callsubr
        </CharString>
        <CharString name="Amacron">
          11 364 741 433 callsubr
          -204 -444 rmoveto
          -56 callsubr
        </CharString>
        <CharString name="Aogonek">
          11 160 218 rmoveto
          52 302 55 -302 rlineto
          90 -384 132 callsubr
          106 -3 hlineto
          -130 619 rlineto
          -155 hlineto
          -127 -631 rlineto
          115 hlineto
          22 131 rlineto
          138 hlineto
          24 -131 rlineto
          39 -21 -7 hlineto
          410 callgsubr
        </CharString>
        <CharString name="Aring">
          11 171 750 13 callgsubr
          -17 -444 rmoveto
          -56 callsubr
        </CharString>
        <CharString name="Atilde">
          11 144 683 rmoveto
          218 callsubr
          6 callsubr
          vlineto
          16 -445 rmoveto
          -56 callsubr
        </CharString>
        <CharString name="B">
          20 48 631 rmoveto
          -631 240 vlineto
          2 callsubr
          148 vlineto
          39 -12 23 -30 10 vhcurveto
          30 10 12 28 39 vvcurveto
          136 35 callsubr
          -5 -520 196 callsubr
          -91 193 91 hlineto
          22 7 -5 -22 hvcurveto
          138 vmoveto
          142 callsubr
          -91 186 91 170 callsubr
          endchar
        </CharString>
        <CharString name="C">
          -9 378 422 -15 callgsubr
        </CharString>
        <CharString name="CR">
          -420 endchar
        </CharString>
        <CharString name="Cacute">
          -9 369 800 46 callgsubr
          122 -241 -15 callgsubr
        </CharString>
        <CharString name="Ccaron">
          -9 268 663 rmoveto
          -4 callsubr
          106 -137 rlineto
          227 -241 -15 callgsubr
        </CharString>
        <CharString name="Ccedilla">
          -9 158 263 callgsubr
          220 471 -15 callgsubr
        </CharString>
        <CharString name="D">
          26 286 111 238 callsubr
        </CharString>
        <CharString name="Dcaron">
          26 278 663 rmoveto
          -4 callsubr
          106 -137 rlineto
          125 -552 238 callsubr
        </CharString>
        <CharString name="Dcroat">
          30 286 397 callsubr
          -90 189 69 83 -69 183 90 -62 callgsubr
          -233 115 rmoveto
          -271 -52 -83 52 -277 240 vlineto
          161 callgsubr
        </CharString>
        <CharString name="E">
          -46 164 88 rmoveto
          191 70 callsubr
          vlineto
          endchar
        </CharString>
        <CharString name="Eacute">
          -46 356 800 46 callgsubr
          -79 -384 rmoveto
          70 callsubr
          -192 hlineto
          endchar
        </CharString>
        <CharString name="Ecaron">
          -46 258 663 rmoveto
          -4 callsubr
          106 -137 rlineto
          23 -384 rmoveto
          70 callsubr
          -192 hlineto
          endchar
        </CharString>
        <CharString name="Ecircumflex">
          -46 200 740 39 callsubr
          16 -384 rmoveto
          70 callsubr
          -192 hlineto
          endchar
        </CharString>
        <CharString name="Edieresis">
          -24 154 767 rmoveto
          -116 -105 116 hlineto
          10 -383 rmoveto
          70 callsubr
          -192 hlineto
          78 679 rmoveto
          -105 116 105 vlineto
          endchar
        </CharString>
        <CharString name="Edotaccent">
          -46 267 768 432 callsubr
          -103 -575 rmoveto
          191 70 callsubr
          vlineto
          endchar
        </CharString>
        <CharString name="Egrave">
          -46 246 663 120 callgsubr
          12 -575 rmoveto
          191 70 callsubr
          vlineto
          endchar
        </CharString>
        <CharString name="Emacron">
          -46 348 751 433 callsubr
          -184 -584 rmoveto
          191 70 callsubr
          vlineto
          endchar
        </CharString>
        <CharString name="Eogonek">
          -46 291 304 callsubr
          106 -1 76 -192 191 155 89 -155 175 184 88 -300 -631 232 -21 -7 hlineto
          410 callgsubr
        </CharString>
        <CharString name="Eth">
          25 286 111 494 callsubr
          193 69 83 -69 187 474 callsubr
          -271 -52 -83 52 -277 240 vlineto
          161 callgsubr
        </CharString>
        <CharString name="Euro">
          13 400 422 rmoveto
          110 35 callsubr
          -117 hlineto
          -76 -32 -36 -63 hvcurveto
          -119 -45 -74 45 -46 -45 -76 45 -119 vlineto
          -62 32 -37 76 512 callgsubr
          498 callgsubr
          108 -116 -96 vlineto
          -7 callsubr
          -46 hlineto
          -23 31 callgsubr
          107 79 76 -79 46 79 74 -79 107 vlineto
          21 6 6 23 vhcurveto
          46 -62 callgsubr
          -98 vlineto
          endchar
        </CharString>
        <CharString name="F">
          -57 354 543 rmoveto
          88 -306 -631 116 267 155 84 -155 192 vlineto
          endchar
        </CharString>
        <CharString name="G">
          -4 378 437 33 callsubr
        </CharString>
        <CharString name="Gbreve">
          -4 262 663 rmoveto
          76 32 36 63 hvcurveto
          38 -102 102 callgsubr
          218 -226 33 callsubr
        </CharString>
        <CharString name="H">
          36 293 631 rmoveto
          -274 -130 274 -115 -631 115 269 130 -269 115 631 vlineto
          endchar
        </CharString>
        <CharString name="I">
          182 callgsubr
          endchar
        </CharString>
        <CharString name="Iacute">
          182 callgsubr
          -104 32 161 callsubr
          endchar
        </CharString>
        <CharString name="Icircumflex">
          182 callgsubr
          -222 32 252 callgsubr
        </CharString>
        <CharString name="Idieresis">
          -197 -49 662 216 callsubr
          -101 -136 rmoveto
          -631 115 631 vlineto
          endchar
        </CharString>
        <CharString name="Idotaccent">
          182 callgsubr
          -119 41 rmoveto
          122 105 -122 hlineto
          endchar
        </CharString>
        <CharString name="Igrave">
          182 callgsubr
          -97 169 361 callgsubr
        </CharString>
        <CharString name="Imacron">
          182 callgsubr
          -209 41 385 callsubr
        </CharString>
        <CharString name="Iogonek">
          -197 103 304 callsubr
          725 -115 -631 38 -21 -7 hlineto
          410 callgsubr
        </CharString>
        <CharString name="J">
          -50 13 221 rmoveto
          -122 -20 callgsubr
          94 3 callsubr
          532 -116 -516 vlineto
          -7 callsubr
          -24 -9 callgsubr
          106 vlineto
          endchar
        </CharString>
        <CharString name="K">
          6 48 hmoveto
          115 631 -115 hlineto
          370 hmoveto
          360 callsubr
        </CharString>
        <CharString name="L">
          -86 163 88 rmoveto
          309 callsubr
        </CharString>
        <CharString name="Lacute">
          -86 267 800 46 callgsubr
          9 -575 rmoveto
          309 callsubr
        </CharString>
        <CharString name="Lcaron">
          -86 269 803 rmoveto
          -112 hlineto
          -53 -77 -52 77 404 callgsubr
          106 -137 rlineto
          117 hlineto
          -578 vmoveto
          309 callsubr
        </CharString>
        <CharString name="Lslash">
          -74 167 88 rmoveto
          214 vlineto
          104 49 rlineto
          84 vlineto
          -104 -49 rlineto
          245 -115 -300 vlineto
          -79 -37 rlineto
          -84 vlineto
          79 37 rlineto
          -247 283 88 vlineto
          endchar
        </CharString>
        <CharString name="M">
          141 327 137 rmoveto
          84 306 rlineto
          -443 101 631 -126 vlineto
          -106 -375 -106 375 rlineto
          -126 -631 102 442 hlineto
          84 -305 rlineto
          endchar
        </CharString>
        <CharString name="N">
          155 callgsubr
          endchar
        </CharString>
        <CharString name="NULL">
          -420 endchar
        </CharString>
        <CharString name="Nacute">
          26 173 663 161 callsubr
          33 -169 302 callsubr
        </CharString>
        <CharString name="Ncaron">
          26 165 662 rmoveto
          117 hlineto
          -4 callsubr
          233 -168 302 callsubr
        </CharString>
        <CharString name="Ntilde">
          155 callgsubr
          -111 32 rmoveto
          6 callsubr
          20 vlineto
          218 callsubr
          endchar
        </CharString>
        <CharString name="O">
          9 269 115 -79 callsubr
        </CharString>
        <CharString name="OE">
          195 282 111 196 callsubr
          -53 -16 callgsubr
          409 -29 callgsubr
          53 170 callsubr
          112 -436 rmoveto
          198 155 83 -155 182 184 84 -272 -20 vlineto
          13 -15 -21 7 -28 hhcurveto
          -76 165 callgsubr
          77 hlineto
          28 20 7 12 15 hvcurveto
          -19 280 84 vlineto
          endchar
        </CharString>
        <CharString name="Oacute">
          9 371 800 46 callgsubr
          11 -548 -79 callsubr
        </CharString>
        <CharString name="Ocircumflex">
          9 212 740 39 callsubr
          109 -548 -79 callsubr
        </CharString>
        <CharString name="Odieresis">
          2 374 767 93 callsubr
          99 -547 -79 callsubr
        </CharString>
        <CharString name="Ograve">
          9 254 663 120 callgsubr
          109 -548 -79 callsubr
        </CharString>
        <CharString name="Ohungarumlaut">
          2 324 662 139 callsubr
          85 -547 -79 callsubr
        </CharString>
        <CharString name="Omacron">
          9 365 741 433 callsubr
          -96 -547 -79 callsubr
        </CharString>
        <CharString name="Oslash">
          14 277 109 rmoveto
          -21 -6 -6 -23 vhcurveto
          -62 hlineto
          -21 -7 5 18 -1 hvcurveto
          120 278 rlineto
          -120 139 rmoveto
          21 7 6 22 vhcurveto
          62 hlineto
          23 6 -6 -21 hvcurveto
          -1 vlineto
          -120 -279 rlineto
          236 409 rmoveto
          -60 hlineto
          -11 -25 rlineto
          3 -12 -15 2 -17 hhcurveto
          -122 207 callsubr
          -433 vlineto
          -28 6 -22 14 -17 vhcurveto
          -23 -52 rlineto
          59 hlineto
          11 25 rlineto
          -3 12 14 -2 16 hhcurveto
          104 callgsubr
          433 vlineto
          26 -6 22 -12 16 vhcurveto
          endchar
        </CharString>
        <CharString name="Otilde">
          9 150 683 rmoveto
          218 callsubr
          6 callsubr
          vlineto
          119 -548 -79 callsubr
        </CharString>
        <CharString name="P">
          -5 274 347 rmoveto
          -7 callsubr
          -83 223 83 -62 callgsubr
          -226 115 rmoveto
          -631 115 232 117 vlineto
          498 callgsubr
          201 35 callsubr
          endchar
        </CharString>
        <CharString name="Q">
          9 159 516 rmoveto
          21 7 6 22 vhcurveto
          53 -62 callgsubr
          -401 vlineto
          -7 callsubr
          -53 -9 callgsubr
          252 -199 rmoveto
          -77 94 rlineto
          35 15 15 31 43 vvcurveto
          226 callgsubr
          -122 165 callgsubr
          65 hlineto
          67 -84 rlineto
          endchar
        </CharString>
        <CharString name="R">
          10 163 543 62 callsubr
        </CharString>
        <CharString name="Racute">
          10 367 799 46 callgsubr
          -91 -119 62 callsubr
        </CharString>
        <CharString name="Rcaron">
          10 271 662 rmoveto
          -4 callsubr
          106 -137 rlineto
          9 -119 62 callsubr
        </CharString>
        <CharString name="S">
          -21 248 115 77 callgsubr
        </CharString>
        <CharString name="Sacute">
          -21 156 663 161 callsubr
          6 75 callsubr
        </CharString>
        <CharString name="Scaron">
          -21 141 663 rmoveto
          117 hlineto
          -4 callsubr
          213 75 callsubr
        </CharString>
        <CharString name="T">
          -74 341 631 rmoveto
          -336 265 callgsubr
          hlineto
          endchar
        </CharString>
        <CharString name="Tcaron">
          -74 230 663 rmoveto
          -4 callsubr
          106 -137 rlineto
          228 -32 rmoveto
          -336 265 callgsubr
          hlineto
          endchar
        </CharString>
        <CharString name="Thorn">
          8 272 233 rmoveto
          -7 callsubr
          -78 218 78 -62 callgsubr
          -106 113 rmoveto
          121 -115 -631 115 121 112 vlineto
          77 32 36 62 hvcurveto
          192 35 callsubr
          endchar
        </CharString>
        <CharString name="U">
          14 272 631 -34 callgsubr
        </CharString>
        <CharString name="Uacute">
          14 373 800 46 callgsubr
          12 -32 -34 callgsubr
        </CharString>
        <CharString name="Ucircumflex">
          14 216 740 39 callsubr
          108 -32 -34 callgsubr
        </CharString>
        <CharString name="Udieresis">
          14 376 767 93 callsubr
          100 -31 -34 callgsubr
        </CharString>
        <CharString name="Ugrave">
          14 263 663 120 callgsubr
          103 -32 -34 callgsubr
        </CharString>
        <CharString name="Uhungarumlaut">
          4 321 663 139 callsubr
          91 -548 196 callsubr
          -53 -16 callgsubr
          516 -115 -532 -20 callgsubr
          104 callgsubr
          532 -115 vlineto
          endchar
        </CharString>
        <CharString name="Umacron">
          14 369 741 433 callsubr
          -97 -31 -34 callgsubr
        </CharString>
        <CharString name="Uogonek">
          14 272 631 rmoveto
          -516 vlineto
          142 callsubr
          -53 -16 callgsubr
          516 -115 -532 -20 callgsubr
          31 -21 -7 hlineto
          87 callgsubr
          -84 hlineto
          454 callgsubr
          94 14 3 callsubr
          532 vlineto
          endchar
        </CharString>
        <CharString name="Uring">
          14 174 750 13 callgsubr
          92 -31 -34 callgsubr
        </CharString>
        <CharString name="V">
          -7 289 631 rmoveto
          -83 -510 -81 510 rlineto
          -119 hlineto
          125 -631 rlineto
          151 hlineto
          125 631 rlineto
          endchar
        </CharString>
        <CharString name="W">
          255 551 631 rmoveto
          -71 -512 -82 512 rlineto
          -121 hlineto
          -83 -512 -65 512 rlineto
          -119 hlineto
          111 -631 rlineto
          146 hlineto
          70 445 71 -445 rlineto
          146 hlineto
          111 631 rlineto
          endchar
        </CharString>
        <CharString name="X">
          -4 269 322 rmoveto
          128 309 rlineto
          -124 hlineto
          -67 -208 -67 208 rlineto
          -129 hlineto
          132 -309 -139 -322 rlineto
          123 hlineto
          80 221 79 -221 rlineto
          128 hlineto
          endchar
        </CharString>
        <CharString name="Y">
          -13 404 631 186 callgsubr
        </CharString>
        <CharString name="Yacute">
          -13 362 800 46 callgsubr
          155 -32 186 callgsubr
        </CharString>
        <CharString name="Ydieresis">
          -21 361 775 93 callsubr
          247 -39 186 callgsubr
        </CharString>
        <CharString name="Z">
          -63 345 631 327 callsubr
        </CharString>
        <CharString name="Zacute">
          -63 344 800 46 callgsubr
          114 315 callgsubr
        </CharString>
        <CharString name="Zcaron">
          -63 245 663 rmoveto
          -4 callsubr
          106 -137 rlineto
          -105 -120 rmoveto
          176 callsubr
          88 -322 vlineto
          endchar
        </CharString>
        <CharString name="Zdotaccent">
          -63 249 768 432 callsubr
          96 315 callgsubr
        </CharString>
        <CharString name="a">
          -26 177 88 rmoveto
          -50 callgsubr
        </CharString>
        <CharString name="aacute">
          -26 362 660 46 callgsubr
          -72 -435 -18 callgsubr
          endchar
        </CharString>
        <CharString name="abreve">
          -26 177 88 -18 callgsubr
          22 169 rmoveto
          102 callgsubr
          102 hlineto
          76 32 36 63 hvcurveto
          38 vlineto
          endchar
        </CharString>
        <CharString name="acircumflex">
          -26 199 600 39 callsubr
          30 -435 -18 callgsubr
          endchar
        </CharString>
        <CharString name="acute">
          24 117 523 161 callsubr
          endchar
        </CharString>
        <CharString name="adieresis">
          -26 156 646 rmoveto
          -116 -105 116 hlineto
          21 -453 -18 callgsubr
          4 155 rmoveto
          -105 116 105 vlineto
          endchar
        </CharString>
        <CharString name="ae">
          189 182 428 callgsubr
          55 vlineto
          89 36 rlineto
          -88 vlineto
          -22 -1 -9 -8 -21 hhcurveto
          215 317 rmoveto
          22 6 -6 -21 hvcurveto
          -90 -101 90 vlineto
          21 7 6 22 vhcurveto
          176 -194 rmoveto
          10 7 171 35 callsubr
          -73 hlineto
          381 callgsubr
          -81 113 65 350 callsubr
          21 9 -8 -22 1 hvcurveto
          -86 vlineto
          -202 -83 rlineto
          -105 214 callsubr
          vlineto
          endchar
        </CharString>
        <CharString name="agrave">
          -26 271 523 120 callgsubr
          -435 vmoveto
          -50 callgsubr
        </CharString>
        <CharString name="amacron">
          -26 346 372 callgsubr
          -169 -464 rmoveto
          -50 callgsubr
        </CharString>
        <CharString name="ampersand">
          89 175 84 rmoveto
          -22 -7 6 21 hvcurveto
          67 vlineto
          28 9 10 19 13 vhcurveto
          21 13 139 -158 rlineto
          -158 437 rmoveto
          465 callsubr
          39 37 callgsubr
          -22 hvcurveto
          -76 vlineto
          -36 -18 -15 -38 -25 vhcurveto
          -3 -2 rlineto
          -22 25 -14 20 26 vvcurveto
          381 -473 rmoveto
          -82 95 rlineto
          4 12 2 13 14 vvcurveto
          137 -92 -75 vlineto
          -113 133 21 13 rlineto
          55 35 30 31 74 vvcurveto
          85 501 callsubr
          -76 vhcurveto
          -103 207 callsubr
          -88 vlineto
          -46 30 -37 39 -47 vhcurveto
          -26 -18 rlineto
          -53 -32 -17 -23 -52 vvcurveto
          -90 -20 callgsubr
          224 hlineto
          13 12 1 2 11 hvcurveto
          34 -38 rlineto
          endchar
        </CharString>
        <CharString name="aogonek">
          276 callgsubr
          79 -254 132 callsubr
          585 -112 -48 hlineto
          -41 callsubr
          37 379 callsubr
        </CharString>
        <CharString name="approxequal">
          92 336 364 rmoveto
          44 hlineto
          67 25 30 56 hvcurveto
          62 -104 -36 422 callgsubr
          -30 -57 hvcurveto
          -62 104 37 vlineto
          22 5 12 24 vhcurveto
          60 18 -71 85 hhcurveto
          -182 vmoveto
          44 hlineto
          67 25 31 56 hvcurveto
          62 -104 -37 422 callgsubr
          -29 -57 hvcurveto
          -62 104 37 vlineto
          22 5 11 24 vhcurveto
          60 18 -71 85 hhcurveto
          endchar
        </CharString>
        <CharString name="aring">
          -26 158 617 13 callgsubr
          13 -441 rmoveto
          -50 callgsubr
        </CharString>
        <CharString name="asciicircum">
          138 195 670 rmoveto
          -129 -364 rlineto
          118 hlineto
          85 263 86 -263 rlineto
          118 hlineto
          -129 364 rlineto
          endchar
        </CharString>
        <CharString name="asciitilde">
          161 372 211 rmoveto
          44 hlineto
          67 26 30 56 hvcurveto
          71 -104 -45 vlineto
          -23 -4 -11 -24 vhcurveto
          -60 -24 80 -84 hhcurveto
          -46 hlineto
          -66 -26 -30 -57 hvcurveto
          -71 104 46 vlineto
          22 5 12 25 vhcurveto
          60 22 -80 85 hhcurveto
          endchar
        </CharString>
        <CharString name="asterisk">
          -79 325 486 rmoveto
          -28 85 -28 -9 -26 -8 -20 -10 -16 -10 rlinecurve
          5 18 3 22 26 vvcurveto
          31 -89 -30 vlineto
          -27 4 -23 4 -18 vhcurveto
          -15 10 -20 11 -26 8 -29 9 rcurveline
          -28 -85 29 -9 26 -9 22 -3 18 -1 rlinecurve
          -14 -12 -15 -16 -16 -21 -19 -25 rcurveline
          73 -53 18 24 16 22 10 20 7 18 rlinecurve
          7 -17 10 -20 15 -21 19 -26 rcurveline
          72 53 -18 25 -16 22 -15 16 -15 11 rlinecurve
          18 1 22 4 25 8 rrcurveto
          endchar
        </CharString>
        <CharString name="at">
          324 237 337 rmoveto
          -162 vlineto
          -60 30 -34 67 vhcurveto
          24 hlineto
          39 27 17 37 6 hvcurveto
          -54 166 vlineto
          71 31 36 62 hvcurveto
          310 vlineto
          63 -30 36 -72 vhcurveto
          -428 hlineto
          -72 444 callsubr
          -470 405 callgsubr
          72 vhcurveto
          356 85 -326 -16 callgsubr
          443 vlineto
          22 152 callgsubr
          370 hlineto
          22 6 -6 -22 hvcurveto
          -289 vlineto
          -7 callsubr
          -45 272 -97 -44 hlineto
          29 -9 -24 15 -35 hhcurveto
          -24 hlineto
          -67 -30 -34 -60 hvcurveto
          103 -11 rmoveto
          -84 callsubr
          28 hlineto
          20 9 -8 -24 hvcurveto
          -128 vlineto
          -24 -9 -8 -20 vhcurveto
          -28 hlineto
          -21 -6 5 21 hvcurveto
          endchar
        </CharString>
        <CharString name="atilde">
          -26 131 553 rmoveto
          218 callsubr
          6 callsubr
          vlineto
          46 -445 rmoveto
          -50 callgsubr
        </CharString>
        <CharString name="b">
          -26 245 397 callsubr
          -30 hlineto
          -21 -10 9 24 hvcurveto
          249 vlineto
          25 10 9 21 vhcurveto
          30 -62 callgsubr
          -19 115 rmoveto
          -36 -24 -14 -28 -10 hvcurveto
          219 -113 -669 112 45 vlineto
          -30 9 25 -15 37 hhcurveto
          30 hlineto
          72 31 36 63 hvcurveto
          294 311 callsubr
        </CharString>
        <CharString name="backslash">
          -24 16 700 rmoveto
          283 -803 rlineto
          102 hlineto
          -283 803 rlineto
          endchar
        </CharString>
        <CharString name="bar">
          -203 53 769 rmoveto
          -909 107 909 vlineto
          endchar
        </CharString>
        <CharString name="braceleft">
          -125 217 674 rmoveto
          20 8 8 22 vhcurveto
          40 83 -81 hlineto
          -79 -25 -43 -59 hvcurveto
          -228 vlineto
          -70 -23 -31 -55 vhcurveto
          -14 -83 14 hlineto
          55 23 -32 -69 hvcurveto
          -229 vlineto
          -60 25 -43 79 vhcurveto
          81 84 -40 hlineto
          -22 -8 8 20 hvcurveto
          246 vlineto
          69 -27 42 -49 5 vhcurveto
          47 8 29 39 76 vvcurveto
          endchar
        </CharString>
        <CharString name="braceright">
          -125 77 435 rmoveto
          -76 30 -39 47 -8 vhcurveto
          -49 -5 -28 -42 -69 vvcurveto
          -246 vlineto
          -20 -8 -8 -22 vhcurveto
          -39 -84 81 hlineto
          78 25 43 60 hvcurveto
          229 vlineto
          69 23 32 56 vhcurveto
          14 83 -14 hlineto
          -56 -23 31 70 hvcurveto
          228 vlineto
          59 -25 43 -78 vhcurveto
          -81 -83 39 hlineto
          22 8 -8 -20 hvcurveto
          endchar
        </CharString>
        <CharString name="bracketleft">
          -107 266 697 rmoveto
          88 -213 -948 213 88 -97 772 vlineto
          endchar
        </CharString>
        <CharString name="bracketright">
          -107 247 785 rmoveto
          -213 -88 97 -772 -97 -88 213 hlineto
          endchar
        </CharString>
        <CharString name="breve">
          24 279 660 rmoveto
          102 callgsubr
          102 hlineto
          76 32 36 63 hvcurveto
          38 vlineto
          endchar
        </CharString>
        <CharString name="brokenbar">
          -203 48 254 rmoveto
          -350 116 350 vlineto
          122 vmoveto
          349 -116 -349 vlineto
          endchar
        </CharString>
        <CharString name="bullet">
          -24 62 321 rmoveto
          -75 61 -61 75 75 61 61 75 75 -61 61 -75 -75 -61 -61 -75 vhcurveto
          endchar
        </CharString>
        <CharString name="c">
          -40 352 326 rmoveto
          66 35 callsubr
          -98 hlineto
          20 callsubr
          vlineto
          endchar
        </CharString>
        <CharString name="cacute">
          -40 353 660 46 callgsubr
          -95 -32 rmoveto
          20 callsubr
          111 66 35 callsubr
          endchar
        </CharString>
        <CharString name="caron">
          24 163 523 rmoveto
          117 hlineto
          -4 callsubr
          endchar
        </CharString>
        <CharString name="ccaron">
          -40 251 523 rmoveto
          -4 callsubr
          106 -137 rlineto
          11 -32 rmoveto
          20 callsubr
          111 66 35 callsubr
          endchar
        </CharString>
        <CharString name="ccedilla">
          -40 145 263 callgsubr
          207 375 rmoveto
          66 35 callsubr
          -98 hlineto
          20 callsubr
          vlineto
          endchar
        </CharString>
        <CharString name="cedilla">
          24 204 263 callgsubr
          endchar
        </CharString>
        <CharString name="cent">
          -40 352 326 rmoveto
          66 vlineto
          61 -30 35 -71 3 vhcurveto
          78 -109 -78 vlineto
          -75 -1 -31 -36 -62 vvcurveto
          -293 vlineto
          -62 31 -36 75 -1 vhcurveto
          -77 109 77 vlineto
          71 3 30 35 61 vvcurveto
          67 -111 -51 vlineto
          -7 callsubr
          -36 210 callsubr
          36 355 callgsubr
          vlineto
          endchar
        </CharString>
        <CharString name="circumflex">
          24 57 523 252 callgsubr
        </CharString>
        <CharString name="colon">
          -230 34 344 rmoveto
          -197 122 197 vlineto
          endchar
        </CharString>
        <CharString name="comma">
          305 callgsubr
          endchar
        </CharString>
        <CharString name="commaaccent">
          24 163 -49 242 callgsubr
        </CharString>
        <CharString name="copyright">
          302 691 340 rmoveto
          183 -59 108 -170 vhcurveto
          -192 hlineto
          -171 -58 -108 -183 hvcurveto
          -54 vlineto
          -184 58 -102 171 vhcurveto
          192 hlineto
          170 59 102 184 hvcurveto
          -406 -209 rmoveto
          -110 -40 64 136 hvcurveto
          72 vlineto
          136 40 70 110 vhcurveto
          162 hlineto
          110 39 -70 -136 hvcurveto
          -72 vlineto
          -136 -39 -64 -110 vhcurveto
          -38 172 rmoveto
          -19 -5 -5 -20 vhcurveto
          -36 hlineto
          -20 -5 5 19 hvcurveto
          141 vlineto
          19 5 5 20 vhcurveto
          36 hlineto
          20 5 -5 -19 hvcurveto
          -28 90 43 vlineto
          52 -27 29 -61 vhcurveto
          -89 hlineto
          -62 -27 -29 -52 hvcurveto
          -171 vlineto
          -52 27 -30 62 vhcurveto
          89 hlineto
          61 27 30 52 hvcurveto
          43 -90 vlineto
          endchar
        </CharString>
        <CharString name="currency">
          96 239 182 rmoveto
          -37 -14 7 44 hvcurveto
          132 vlineto
          44 14 7 37 vhcurveto
          41 hlineto
          37 15 -7 -44 hvcurveto
          -132 vlineto
          -44 -15 -7 -37 vhcurveto
          150 189 rmoveto
          27 -4 24 -8 19 vhcurveto
          45 45 -70 70 -61 -60 rlineto
          1 -8 -9 0 -10 hhcurveto
          -90 hlineto
          -12 -10 -1 -1 -10 hvcurveto
          -62 61 -71 -70 51 -51 rlineto
          -7 -18 -3 -21 -25 vvcurveto
          -144 vlineto
          -21 2 -19 5 -16 vhcurveto
          -48 -48 71 -71 53 53 rlineto
          -3 12 14 -1 15 hhcurveto
          90 hlineto
          13 12 1 2 11 hvcurveto
          52 -52 70 71 -42 42 rlineto
          6 17 3 21 24 vvcurveto
          endchar
        </CharString>
        <CharString name="d">
          -26 177 428 callgsubr
          262 266 callgsubr
          -25 hvcurveto
          -249 235 callsubr
          31 581 rmoveto
          -219 vlineto
          271 callsubr
          vlineto
          endchar
        </CharString>
        <CharString name="dagger">
          -31 382 472 rmoveto
          454 callsubr
          -498 115 498 130 hlineto
          endchar
        </CharString>
        <CharString name="daggerdbl">
          -7 394 388 rmoveto
          84 454 callsubr
          -294 -130 -83 130 -159 115 159 130 83 -130 294 vlineto
          endchar
        </CharString>
        <CharString name="dcaron">
          7 177 428 callgsubr
          262 266 callgsubr
          -25 hvcurveto
          -249 235 callsubr
          31 362 rmoveto
          271 callsubr
          -114 vlineto
          156 hmoveto
          503 callsubr
          endchar
        </CharString>
        <CharString name="dcroat">
          -21 182 166 callsubr
          192 523 rmoveto
          -47 58 -114 -58 -74 -66 74 -96 hlineto
          452 callgsubr
          -293 409 callsubr
          545 47 vlineto
          endchar
        </CharString>
        <CharString name="degree">
          -8 359 533 rmoveto
          62 -30 36 -76 vhcurveto
          -97 hlineto
          -77 -29 -36 -62 hvcurveto
          -104 vlineto
          -62 29 -36 77 vhcurveto
          97 hlineto
          76 30 36 62 hvcurveto
          -105 6 rmoveto
          -21 -7 -5 -22 vhcurveto
          -41 hlineto
          -22 -7 5 21 hvcurveto
          92 vlineto
          20 7 6 22 vhcurveto
          41 hlineto
          22 7 -6 -20 hvcurveto
          endchar
        </CharString>
        <CharString name="dieresis">
          24 62 541 216 callsubr
          endchar
        </CharString>
        <CharString name="divide">
          27 25 270 493 callsubr
          143 152 rmoveto
          -95 111 95 vlineto
          -111 -297 rmoveto
          -96 111 96 vlineto
          endchar
        </CharString>
        <CharString name="dollar">
          -21 180 362 rmoveto
          -22 -7 6 21 hvcurveto
          127 vlineto
          21 7 6 22 vhcurveto
          38 -62 callgsubr
          -72 116 88 365 callgsubr
          -76 vhcurveto
          79 -109 -79 -1 vlineto
          -77 444 callsubr
          -155 vlineto
          -63 28 -37 75 vhcurveto
          81 -62 callgsubr
          -135 vlineto
          -7 callsubr
          -38 -9 callgsubr
          71 -115 -87 vlineto
          -62 31 -36 76 -1 vhcurveto
          -79 109 79 1 vlineto
          2 callsubr
          165 vlineto
          63 -30 35 -75 vhcurveto
          endchar
        </CharString>
        <CharString name="dotaccent">
          24 161 539 rmoveto
          122 105 -122 hlineto
          endchar
        </CharString>
        <CharString name="dotlessi">
          168 callsubr
          endchar
        </CharString>
        <CharString name="dvBH_N">
          403 553 336 callsubr
          -306 hmoveto
          197 callsubr
          -34 -74 callgsubr
          111 vlineto
          22 -88 callgsubr
          63 hlineto
          114 82 rmoveto
          128 vlineto
          -67 callgsubr
          -115 -98 53 callgsubr
          -140 -8 callsubr
          149 79 -149 vlineto
          -70 32 -30 83 474 callgsubr
          -297 vlineto
          -69 -30 -22 -48 -6 hvcurveto
          -1 222 rmoveto
          -83 403 83 vlineto
          endchar
        </CharString>
        <CharString name="dvB_N">
          273 423 370 rmoveto
          22 7 5 21 vhcurveto
          53 -208 hlineto
          299 callgsubr
          -238 -28 16 callgsubr
          73 -112 rcurveline
          24 111 rmoveto
          -41 6 -27 -34 callsubr
          -210 vlineto
          -70 34 -30 68 vhcurveto
          132 hlineto
          30 18 7 16 11 hvcurveto
          -16 19 29 -7 40 hhcurveto
          489 callgsubr
          -297 53 callgsubr
          -330 243 rmoveto
          -83 733 83 vlineto
          endchar
        </CharString>
        <CharString name="dvCH_N">
          169 330 -273 rmoveto
          20 callgsubr
          -91 751 -101 callsubr
          -374 83 rmoveto
          -6 callgsubr
          180 -63 -100 hlineto
          -62 -33 413 callsubr
          92 -1 rlineto
          33 -65 callsubr
          76 -108 92 248 hlineto
          76 1 36 30 69 vvcurveto
          218 callgsubr
          149 83 vlineto
          endchar
        </CharString>
        <CharString name="dvC_N">
          239 400 370 rmoveto
          22 6 5 22 70 callgsubr
          -113 6 rmoveto
          -69 callgsubr
          -55 -94 callsubr
          180 vlineto
          23 6 4 22 1 vhcurveto
          32 82 -233 159 callsubr
          109 357 callgsubr
          101 82 -302 53 callgsubr
          -308 243 rmoveto
          -83 716 83 vlineto
          endchar
        </CharString>
        <CharString name="dvDDH_DDHA">
          19 355 296 callgsubr
          104 83 -479 -83 262 462 callsubr
          -215 vlineto
          -36 16 -16 439 callgsubr
          -3 -16 -16 -33 vvcurveto
          -170 vlineto
          377 callsubr
          127 259 callsubr
          37 vlineto
          71 -32 30 -83 vhcurveto
          -83 -83 56 hlineto
          22 7 -5 -23 hvcurveto
          -16 vlineto
          -23 -7 -5 -22 vhcurveto
          -73 -48 callgsubr
          169 -94 callgsubr
          101 259 callsubr
          40 341 callgsubr
          -83 -83 56 hlineto
          22 7 -5 -23 hvcurveto
          -18 vlineto
          -23 -7 -5 -22 vhcurveto
          -73 -48 callgsubr
          160 -68 callsubr
          endchar
        </CharString>
        <CharString name="dvDD_GA">
          -17 336 336 callgsubr
          87 83 -443 6 callgsubr
          -40 12 -26 30 -14 vhcurveto
          -66 vlineto
          -17 -5 -4 -17 vhcurveto
          -19 -63 52 hlineto
          59 21 24 47 hvcurveto
          68 52 -181 91 194 vlineto
          26 15 11 25 38 vvcurveto
          -70 callsubr
          endchar
        </CharString>
        <CharString name="dvDD_N">
          -17 230 -248 rmoveto
          92 266 hlineto
          21 15 9 24 34 vvcurveto
          -70 callsubr
          147 510 callgsubr
          -443 -83 243 -69 -69 hlineto
          141 callsubr
          hlineto
          104 -133 rmoveto
          80 callsubr
        </CharString>
        <CharString name="dvDH_N">
          349 470 353 callgsubr
          54 -208 hlineto
          168 callgsubr
          -113 6 rmoveto
          -58 callgsubr
          77 259 callsubr
          219 135 82 -337 vlineto
          202 callsubr
          -1 243 rmoveto
          1 -83 rlineto
          442 83 hlineto
          endchar
        </CharString>
        <CharString name="dvD_N">
          -17 254 -171 rmoveto
          104 448 -104 -87 hlineto
          -26 callgsubr
          -42 237 callsubr
          56 hlineto
          20 286 callgsubr
          -77 -79 vlineto
          -62 -33 -26 -65 hvcurveto
          -46 91 32 -68 callsubr
          55 hlineto
          110 -135 rmoveto
          80 callsubr
        </CharString>
        <CharString name="dvGH_N">
          269 419 353 callgsubr
          54 469 callgsubr
          -8 254 callgsubr
          290 359 rmoveto
          83 -729 -83 73 vlineto
          290 callsubr
          127 316 callgsubr
          82 436 callsubr
          96 82 -298 335 callgsubr
          -86 63 callsubr
          30 8 2 41 vhcurveto
          endchar
        </CharString>
        <CharString name="dvG_N">
          397 547 370 72 callsubr
          -260 -227 rmoveto
          -85 callsubr
          661 470 rmoveto
          -890 -83 -91 callgsubr
          519 vlineto
          endchar
        </CharString>
        <CharString name="dvJH_N">
          389 538 336 callsubr
          -201 212 rmoveto
          147 524 83 -890 -83 252 -69 -87 vlineto
          -78 -28 -29 -62 hvcurveto
          -60 callgsubr
          78 -59 hlineto
          -70 32 -30 83 vhcurveto
          77 hlineto
          83 436 callsubr
          128 82 -330 53 callgsubr
          -72 -254 vlineto
          69 callgsubr
          endchar
        </CharString>
        <CharString name="dvJ_N">
          421 631 397 rmoveto
          -208 vlineto
          125 callgsubr
          293 82 rmoveto
          -631 223 callsubr
          33 -30 82 vhcurveto
          78 hlineto
          82 33 30 70 hvcurveto
          219 126 vlineto
          -891 234 rmoveto
          -83 891 83 vlineto
          endchar
        </CharString>
        <CharString name="dvKH_N">
          573 691 337 callgsubr
          -114 27 rmoveto
          155 callsubr
          146 82 -348 53 callgsubr
          -597 243 rmoveto
          -83 206 vlineto
          -87 callsubr
          706 83 hlineto
          endchar
        </CharString>
        <CharString name="dvK_N">
          413 639 367 rmoveto
          -178 453 callsubr
          151 -21 callsubr
          298 181 rmoveto
          83 -903 -83 259 -358 vlineto
          -105 callsubr
          62 -9 hlineto
          -180 vlineto
          -70 33 -30 83 vhcurveto
          77 461 callgsubr
          131 82 -489 vlineto
          283 callgsubr
          vlineto
          endchar
        </CharString>
        <CharString name="dvM_N">
          416 626 189 76 callsubr
          629 199 rmoveto
          83 -876 -83 646 -116 -487 284 callgsubr
          -163 11 callgsubr
          171 80 -8 vlineto
          -163 183 callgsubr
          171 117 83 -117 116 vlineto
          endchar
        </CharString>
        <CharString name="dvMatraI.a33">
          1291 833 rmoveto
          -1145 -107 callsubr
          1047 -66 callgsubr
        </CharString>
        <CharString name="dvMatraI.a34">
          1317 833 rmoveto
          -1171 -107 callsubr
          1073 117 callgsubr
        </CharString>
        <CharString name="dvMatraI.a35">
          1343 833 rmoveto
          -1197 -107 callsubr
          1100 hlineto
          27 -38 callsubr
        </CharString>
        <CharString name="dvMatraI.a36">
          1370 833 rmoveto
          -1224 -107 callsubr
          1126 -66 callgsubr
        </CharString>
        <CharString name="dvMatraI.a37">
          1396 833 rmoveto
          -1250 -107 callsubr
          1152 hlineto
          28 -38 callsubr
        </CharString>
        <CharString name="dvMatraI.a38">
          1422 833 rmoveto
          -1276 -107 callsubr
          1179 hlineto
          27 -38 callsubr
        </CharString>
        <CharString name="dvMatraI.a39">
          1449 833 rmoveto
          -1303 -107 callsubr
          1205 -66 callgsubr
        </CharString>
        <CharString name="dvMatraI.a40">
          1475 833 rmoveto
          -1329 -107 callsubr
          1231 -66 callgsubr
        </CharString>
        <CharString name="dvMatraI.a41">
          1501 833 rmoveto
          -1355 -107 callsubr
          1257 117 callgsubr
        </CharString>
        <CharString name="dvMatraI.a42">
          1527 833 rmoveto
          -1381 -107 callsubr
          1284 hlineto
          27 -38 callsubr
        </CharString>
        <CharString name="dvMatraI.a43">
          1554 833 rmoveto
          -1408 -107 callsubr
          1310 -66 callgsubr
        </CharString>
        <CharString name="dvMatraI.a44">
          1580 833 rmoveto
          -1434 -107 callsubr
          1336 hlineto
          28 -38 callsubr
        </CharString>
        <CharString name="dvMatraI.a45">
          1606 833 rmoveto
          -1460 -107 callsubr
          1363 hlineto
          27 -38 callsubr
        </CharString>
        <CharString name="dvMatraI.a46">
          1633 833 rmoveto
          -1487 -107 callsubr
          1389 -66 callgsubr
        </CharString>
        <CharString name="dvMatraI.a47">
          1659 833 rmoveto
          -1513 -107 callsubr
          1415 -66 callgsubr
        </CharString>
        <CharString name="dvMatraI.a48">
          1685 833 rmoveto
          -1539 -107 callsubr
          1441 117 callgsubr
        </CharString>
        <CharString name="dvMatraI.a49">
          1711 833 rmoveto
          -1565 -107 callsubr
          1468 hlineto
          27 -38 callsubr
        </CharString>
        <CharString name="dvMatraI.a50">
          1738 833 rmoveto
          -1592 -107 callsubr
          1494 -66 callgsubr
        </CharString>
        <CharString name="dvNG_GA">
          22 344 297 -16 callsubr
          -40 12 -26 30 -14 vhcurveto
          -66 vlineto
          -17 -5 -4 -17 vhcurveto
          -19 -63 52 hlineto
          59 21 24 47 hvcurveto
          68 52 -181 91 194 vlineto
          26 15 11 25 38 vvcurveto
          -70 callsubr
          147 147 126 83 hlineto
          endchar
        </CharString>
        <CharString name="dvNG_MA">
          222 446 412 rmoveto
          -95 -105 95 hlineto
          39 -223 rmoveto
          -143 137 hlineto
          62 -28 30 -78 vhcurveto
          -58 hlineto
          -21 -6 5 21 hvcurveto
          36 -94 callgsubr
          148 147 159 hlineto
          208 callsubr
          -687 -83 233 -69 -70 hlineto
          134 callgsubr
          -62 vlineto
          -62 443 callgsubr
          58 11 callsubr
          -75 -23 callsubr
          42 -114 -56 vlineto
          -61 164 callgsubr
          63 hlineto
          11 10 1 2 10 hvcurveto
          -116 113 86 143 -145 113 692 69 vlineto
          endchar
        </CharString>
        <CharString name="dvNY_CA">
          395 835 631 rmoveto
          -855 -83 673 130 callsubr
          -226 -82 65 321 callsubr
          -39 -103 65 vlineto
          -32 callgsubr
          59 103 -59 vlineto
          -70 12 callgsubr
          74 hlineto
          20 -46 callgsubr
          69 vlineto
          endchar
        </CharString>
        <CharString name="dvN_N">
          388 616 397 rmoveto
          -208 vlineto
          125 callsubr
          -335 -208 -100 callgsubr
          611 82 rmoveto
          -699 224 callgsubr
          109 vlineto
          -858 234 rmoveto
          -83 858 83 vlineto
          endchar
        </CharString>
        <CharString name="dvPH_N">
          418 250 21 callgsubr
          399 -151 rmoveto
          -208 vlineto
          125 callgsubr
          262 151 rmoveto
          83 -878 302 callgsubr
          63 -9 hlineto
          293 callsubr
          95 82 -454 vlineto
          177 callsubr
          81 vlineto
          endchar
        </CharString>
        <CharString name="dvP_N">
          229 379 370 rmoveto
          22 6 5 22 70 callgsubr
          290 359 rmoveto
          83 -689 -83 64 -370 vlineto
          -70 12 callgsubr
          101 357 callgsubr
          96 82 -297 335 callgsubr
          -47 hlineto
          -21 -6 5 23 hvcurveto
          359 vlineto
          endchar
        </CharString>
        <CharString name="dvSHA_MatraVocalicR">
          172 163 527 179 callsubr
          381 -352 rmoveto
          509 68 83 -182 -266 -93 97 callgsubr
          142 -169 -6 hlineto
          -76 -28 -30 -62 hvcurveto
          -65 vlineto
          -62 28 -29 78 vhcurveto
          167 82 -132 hlineto
          -21 -6 5 21 hvcurveto
          35 -94 callgsubr
          endchar
        </CharString>
        <CharString name="dvSH_VA.aSimp">
          408 159 634 rmoveto
          -105 callgsubr
          593 -3 rmoveto
          -452 -83 270 -358 hlineto
          19 callsubr
        </CharString>
        <CharString name="dvS_N">
          399 629 189 101 callgsubr
          210 82 rmoveto
          -298 92 callgsubr
          492 83 -858 -104 callsubr
          279 -92 192 callgsubr
          96 vlineto
          endchar
        </CharString>
        <CharString name="dvTH_N">
          345 479 353 callgsubr
          54 -208 hlineto
          168 callgsubr
          -114 6 rmoveto
          -23 callgsubr
          24 15 440 callsubr
          19 28 -7 40 hhcurveto
          78 259 callsubr
          219 112 82 -314 207 callgsubr
          243 vmoveto
          -83 420 83 vlineto
          endchar
        </CharString>
        <CharString name="dvTTH_N">
          275 callgsubr
          6 -331 rmoveto
          92 261 hlineto
          30 15 13 28 44 492 callsubr
          172 221 callsubr
          hlineto
          104 -133 rmoveto
          80 callsubr
        </CharString>
        <CharString name="dvTTH_TTHA">
          27 301 283 rmoveto
          370 callsubr
          93 vlineto
          23 7 5 22 vhcurveto
          84 hlineto
          22 7 -5 -23 hvcurveto
          -448 vmoveto
          370 callsubr
          93 vlineto
          24 7 5 22 vhcurveto
          84 hlineto
          22 7 -5 -24 hvcurveto
          157 527 rmoveto
          83 -478 -83 190 -63 -7 vlineto
          414 callgsubr
          -111 476 callgsubr
          7 -43 -7 hlineto
          -82 -33 -30 -71 hvcurveto
          -111 476 callgsubr
          134 hlineto
          82 33 29 71 hvcurveto
          111 vlineto
          71 450 callgsubr
          -9 43 9 hlineto
          82 33 29 71 hvcurveto
          111 vlineto
          70 450 callgsubr
          -9 63 hlineto
          endchar
        </CharString>
        <CharString name="dvTT_GA">
          -18 355 397 244 callsubr
          -43 13 -29 29 -15 vhcurveto
          -68 vlineto
          -17 -4 -4 -18 vhcurveto
          -19 -63 53 hlineto
          58 22 24 47 hvcurveto
          68 51 -181 91 199 vlineto
          24 15 11 27 40 vvcurveto
          -15 callsubr
        </CharString>
        <CharString name="dvTT_N">
          -18 243 -248 rmoveto
          91 273 hlineto
          17 17 8 24 34 199 callsubr
          377 callsubr
          80 -63 -74 hlineto
          -62 -33 488 callsubr
          7 5 21 vhcurveto
          50 hlineto
          103 -133 rmoveto
          80 callsubr
        </CharString>
        <CharString name="dvT_KH_NA">
          927 991 189 348 callgsubr
          181 -21 callsubr
          54 hlineto
          371 234 rmoveto
          -1382 55 callgsubr
          251 84 -228 215 callsubr
          636 -69 -278 hlineto
          202 callsubr
          -172 vlineto
          -24 -10 -8 -24 vhcurveto
          -30 372 callsubr
          21 6 5 21 vhcurveto
          29 247 callgsubr
          34 -29 68 vhcurveto
          64 hlineto
          24 16 6 12 8 hvcurveto
          -28 16 33 -13 54 hhcurveto
          77 hlineto
          83 32 418 callgsubr
        </CharString>
        <CharString name="dvT_N">
          246 450 397 rmoveto
          -208 vlineto
          125 callsubr
          290 82 rmoveto
          -537 -86 callsubr
          71 -9 hlineto
          -210 vlineto
          -70 33 -30 83 vhcurveto
          77 259 callsubr
          219 123 vlineto
          -706 234 rmoveto
          -83 706 83 vlineto
          endchar
        </CharString>
        <CharString name="dvT_R_KA">
          429 869 483 callsubr
          -889 -83 516 -358 vlineto
          -106 callsubr
          -117 -10 vlineto
          -80 139 rlineto
          -37 callsubr
          23 -15 hlineto
          41 callsubr
        </CharString>
        <CharString name="dvT_S_NA">
          781 1040 485 callsubr
          -36 -96 vlineto
          -31 callsubr
          472 hlineto
          -189 -359 rmoveto
          -23 -8 146 callsubr
          54 hlineto
          370 234 rmoveto
          -1241 -83 449 293 callgsubr
          42 callgsubr
          165 279 -92 vlineto
          -70 33 -30 82 vhcurveto
          379 callgsubr
        </CharString>
        <CharString name="dvV_N">
          213 363 370 rmoveto
          22 6 5 22 70 callgsubr
          -113 1 rmoveto
          -22 -8 -7 4 callsubr
          33 20 10 18 11 hvcurveto
          -19 18 30 -9 45 hhcurveto
          77 259 callsubr
          219 96 82 -297 53 callgsubr
          -270 243 rmoveto
          -83 673 83 vlineto
          endchar
        </CharString>
        <CharString name="dvY_N">
          318 468 337 callgsubr
          290 442 rmoveto
          -778 200 callgsubr
          96 82 -298 vlineto
          -78 -28 -29 -62 hvcurveto
          -193 vlineto
          -85 callgsubr
          494 hlineto
          endchar
        </CharString>
        <CharString name="e">
          -28 148 286 -87 callgsubr
        </CharString>
        <CharString name="eacute">
          -28 359 660 46 callgsubr
          -98 -237 -87 callgsubr
        </CharString>
        <CharString name="ecaron">
          -28 258 523 rmoveto
          -4 callsubr
          106 -137 rlineto
          7 -237 -87 callgsubr
        </CharString>
        <CharString name="ecircumflex">
          -29 201 600 39 callsubr
          -1 -237 -87 callgsubr
        </CharString>
        <CharString name="edieresis">
          -29 357 646 93 callsubr
          -5 -255 -87 callgsubr
        </CharString>
        <CharString name="edotaccent">
          -28 262 644 432 callsubr
          -114 -253 -87 callgsubr
        </CharString>
        <CharString name="egrave">
          -28 239 523 120 callgsubr
          3 -237 -87 callgsubr
        </CharString>
        <CharString name="eight">
          47 callsubr
        </CharString>
        <CharString name="ellipsis">
          192 48 hmoveto
          128 132 -128 hlineto
          211 -132 rmoveto
          127 132 -127 hlineto
          211 -132 rmoveto
          127 132 -127 hlineto
          endchar
        </CharString>
        <CharString name="emacron">
          -28 347 372 callgsubr
          -199 -266 -87 callgsubr
        </CharString>
        <CharString name="emdash">
          178 20 255 rmoveto
          554 83 -554 hlineto
          endchar
        </CharString>
        <CharString name="endash">
          54 31 255 rmoveto
          365 83 -365 hlineto
          endchar
        </CharString>
        <CharString name="eogonek">
          -28 148 286 rmoveto
          94 -29 callgsubr
          48 -62 callgsubr
          -94 vlineto
          -105 205 rmoveto
          -76 -33 137 callsubr
          33 -36 76 vhcurveto
          23 -21 -7 hlineto
          87 callgsubr
          -84 hlineto
          454 callgsubr
          94 4 3 callsubr
          50 -110 -37 vlineto
          -7 callsubr
          -46 47 callgsubr
          101 213 179 365 callgsubr
          -76 vhcurveto
          endchar
        </CharString>
        <CharString name="equal">
          33 28 364 rmoveto
          397 91 -397 hlineto
          -281 vmoveto
          397 92 -397 hlineto
          endchar
        </CharString>
        <CharString name="eth">
          -8 255 397 callsubr
          -50 -16 callgsubr
          193 vlineto
          22 152 callgsubr
          76 hlineto
          1 -11 1 -11 -11 vvcurveto
          95 258 rmoveto
          64 vlineto
          -89 -30 -12 14 -12 12 -11 10 rlinecurve
          -157 hlineto
          24 -18 29 -25 27 -31 -60 -20 rcurveline
          -64 vlineto
          100 34 18 -27 16 -29 11 -32 rlinecurve
          -89 207 callsubr
          -221 vlineto
          -63 32 -36 77 vhcurveto
          113 3 callsubr
          209 vlineto
          98 -31 79 -38 59 vhcurveto
          endchar
        </CharString>
        <CharString name="exclam">
          -186 50 631 rmoveto
          20 -419 rlineto
          94 hlineto
          20 419 rlineto
          -128 -631 rmoveto
          121 135 -121 hlineto
          endchar
        </CharString>
        <CharString name="exclamdown">
          -186 56 356 rmoveto
          121 135 -121 hlineto
          128 -631 rmoveto
          -20 419 rlineto
          -94 hlineto
          -20 -419 rlineto
          endchar
        </CharString>
        <CharString name="f">
          -172 243 580 rmoveto
          89 -78 vlineto
          383 callsubr
          113 403 73 88 -73 62 -29 callgsubr
          endchar
        </CharString>
        <CharString name="fi">
          -5 373 491 rmoveto
          -204 63 hlineto
          21 152 callgsubr
          19 88 -51 hlineto
          383 callsubr
          112 403 91 -403 113 vlineto
          -113 669 rmoveto
          -88 113 88 vlineto
          endchar
        </CharString>
        <CharString name="five">
          138 callsubr
        </CharString>
        <CharString name="fl">
          -5 261 669 rmoveto
          -178 -92 63 -29 callgsubr
          19 88 -51 hlineto
          383 callsubr
          112 403 92 -403 112 669 vlineto
          endchar
        </CharString>
        <CharString name="florin">
          -39 338 578 rmoveto
          91 -82 vlineto
          -76 -24 -37 -62 -8 hvcurveto
          -11 -79 rlineto
          -78 -88 67 hlineto
          -58 -429 rlineto
          -21 -3 -4 -6 -22 hhcurveto
          -49 -91 82 hlineto
          77 23 37 62 9 hvcurveto
          60 448 rlineto
          97 88 -85 hlineto
          8 60 rlineto
          21 3 3 6 22 hhcurveto
          endchar
        </CharString>
        <CharString name="four">
          232 callsubr
        </CharString>
        <CharString name="fraction">
          257 callsubr
        </CharString>
        <CharString name="g">
          -26 177 101 91 callgsubr
        </CharString>
        <CharString name="gbreve">
          -26 177 101 rmoveto
          -24 callsubr
          248 347 callgsubr
          -235 vlineto
          -25 -9 -9 -22 vhcurveto
          33 342 rmoveto
          349 callsubr
          -280 334 callsubr
          -78 vlineto
          -7 callsubr
          -156 -86 189 hlineto
          76 33 36 63 hvcurveto
          528 -112 vlineto
          14 169 rmoveto
          102 callgsubr
          102 hlineto
          76 32 36 63 hvcurveto
          38 vlineto
          endchar
        </CharString>
        <CharString name="germandbls">
          115 218 155 rmoveto
          -56 vlineto
          -62 31 -36 75 -1 vhcurveto
          82 hlineto
          77 27 36 63 hvcurveto
          89 365 callgsubr
          -76 vhcurveto
          -44 -9 callgsubr
          28 vlineto
          21 7 6 22 vhcurveto
          20 hlineto
          71 23 26 56 hvcurveto
          66 vlineto
          60 -32 35 -73 vhcurveto
          -217 hlineto
          -77 -28 -36 -62 hvcurveto
          -514 115 495 vlineto
          21 7 7 22 vhcurveto
          138 hlineto
          22 420 callsubr
          -27 vlineto
          -19 -6 -4 -26 -70 -33 -30 -64 vhcurveto
          -46 vlineto
          -63 28 -36 77 vhcurveto
          46 -62 callgsubr
          -69 vlineto
          -7 callsubr
          -13 hlineto
          -21 1 -5 5 21 vvcurveto
          45 vlineto
          endchar
        </CharString>
        <CharString name="grave">
          24 231 660 361 callgsubr
        </CharString>
        <CharString name="greater">
          33 316 316 rmoveto
          -288 -85 rlineto
          -96 vlineto
          397 128 rlineto
          108 vlineto
          -397 125 rlineto
          -96 vlineto
          endchar
        </CharString>
        <CharString name="greaterequal">
          58 341 388 rmoveto
          -302 -64 rlineto
          -93 vlineto
          400 112 rlineto
          94 vlineto
          -400 104 rlineto
          -91 vlineto
          -328 vmoveto
          400 83 -400 hlineto
          endchar
        </CharString>
        <CharString name="guillemotleft">
          73 147 102 rmoveto
          113 hlineto
          -117 154 117 491 callgsubr
          321 -154 rmoveto
          113 hlineto
          -116 154 116 491 callgsubr
          endchar
        </CharString>
        <CharString name="guillemotright">
          73 260 256 366 callgsubr
          321 154 366 callgsubr
          endchar
        </CharString>
        <CharString name="guilsinglleft">
          -128 147 102 rmoveto
          117 hlineto
          -116 154 116 154 rlineto
          -117 hlineto
          -116 -154 rlineto
          endchar
        </CharString>
        <CharString name="guilsinglright">
          -127 264 256 rmoveto
          -116 154 rlineto
          -117 hlineto
          116 -154 -116 -154 rlineto
          117 hlineto
          endchar
        </CharString>
        <CharString name="h">
          -21 226 491 rmoveto
          -36 -24 -14 -28 -10 hvcurveto
          220 -113 -669 113 370 vlineto
          24 10 9 21 vhcurveto
          30 -62 callgsubr
          -376 114 392 311 callsubr
        </CharString>
        <CharString name="hungarumlaut">
          24 196 523 508 callgsubr
          -226 -137 508 callgsubr
          endchar
        </CharString>
        <CharString name="hyphen">
          456 callsubr
        </CharString>
        <CharString name="i">
          168 callsubr
          -3 571 rmoveto
          119 99 -119 hlineto
          endchar
        </CharString>
        <CharString name="iacute">
          168 callsubr
          6 523 161 callsubr
          endchar
        </CharString>
        <CharString name="icircumflex">
          168 callsubr
          -109 523 252 callgsubr
        </CharString>
        <CharString name="idieresis">
          168 callsubr
          -105 541 216 callsubr
          endchar
        </CharString>
        <CharString name="igrave">
          168 callsubr
          18 660 361 callgsubr
        </CharString>
        <CharString name="imacron">
          168 callsubr
          -95 552 385 callsubr
        </CharString>
        <CharString name="infinity">
          175 483 301 rmoveto
          -25 -3 -9 -28 vhcurveto
          -33 hlineto
          -21 -12 12 17 -12 hvcurveto
          -35 47 35 59 rlineto
          18 12 8 9 17 hhcurveto
          41 hlineto
          28 3 -10 -24 hvcurveto
          -341 -128 rmoveto
          -27 -3 9 25 hvcurveto
          94 vlineto
          24 3 9 27 vhcurveto
          23 hlineto
          26 12 -14 -22 15 hvcurveto
          33 -48 -30 -47 rlineto
          -15 -9 -18 -15 -21 hhcurveto
          243 238 rmoveto
          -63 -11 -15 -56 -35 hvcurveto
          -13 -21 -16 24 rlineto
          47 -34 -19 21 -58 hhcurveto
          -37 hlineto
          -78 -30 -39 -58 hvcurveto
          -120 vlineto
          -59 30 -38 78 vhcurveto
          32 hlineto
          72 21 11 64 38 hvcurveto
          4 7 14 -19 rlineto
          -51 36 22 -12 59 hhcurveto
          36 hlineto
          79 30 38 59 hvcurveto
          120 vlineto
          58 -30 39 -79 vhcurveto
          endchar
        </CharString>
        <CharString name="integral">
          -71 235 596 rmoveto
          21 1 6 6 22 hhcurveto
          49 91 -82 207 callsubr
          -627 vlineto
          -21 -3 -4 -6 -22 hhcurveto
          -49 -91 82 3 callsubr
          endchar
        </CharString>
        <CharString name="iogonek">
          -221 159 670 rmoveto
          -119 -99 119 hlineto
          -69 -737 132 callsubr
          585 -113 -491 36 -21 -7 hlineto
          410 callgsubr
        </CharString>
        <CharString name="itfLogo">
          1228 147 hmoveto
          263 callsubr
          236 -634 rmoveto
          263 callsubr
          236 -634 rmoveto
          263 callsubr
          -410 vmoveto
          196 185 -196 hlineto
          endchar
        </CharString>
        <CharString name="itfStar">
          252 663 452 rmoveto
          -28 -200 -6 -2 -34 hvcurveto
          -66 246 -8 -27 -53 -188 -8 -31 rlinecurve
          -261 8 25 -15 168 -108 28 -17 rlinecurve
          -96 -247 24 20 152 128 29 20 rlinecurve
          204 -168 -11 28 -71 189 -12 30 rlinecurve
          endchar
        </CharString>
        <CharString name="j">
          -221 43 -23 196 callsubr
          -22 -86 55 3 callsubr
          528 -113 vlineto
          -3 80 rmoveto
          119 99 -119 hlineto
          endchar
        </CharString>
        <CharString name="k">
          -29 43 hmoveto
          113 669 -113 hlineto
          347 -178 368 callgsubr
        </CharString>
        <CharString name="l">
          -221 156 hmoveto
          434 callsubr
          endchar
        </CharString>
        <CharString name="lacute">
          -221 51 701 161 callsubr
          19 -838 rmoveto
          434 callsubr
          endchar
        </CharString>
        <CharString name="lcaron">
          -184 199 669 rmoveto
          503 callsubr
          -129 -669 rmoveto
          434 callsubr
          endchar
        </CharString>
        <CharString name="less">
          33 425 400 rmoveto
          96 vlineto
          -397 -125 rlineto
          -108 vlineto
          397 -128 rlineto
          96 vlineto
          -288 85 rlineto
          endchar
        </CharString>
        <CharString name="lessequal">
          58 433 450 rmoveto
          91 vlineto
          -400 -104 rlineto
          -94 vlineto
          400 -112 rlineto
          93 vlineto
          -302 64 rlineto
          302 -183 rmoveto
          -400 -83 400 hlineto
          endchar
        </CharString>
        <CharString name="logicalnot">
          71 443 405 rmoveto
          -404 -115 320 -146 84 hlineto
          endchar
        </CharString>
        <CharString name="lozenge">
          137 277 94 rmoveto
          -107 222 107 221 110 -221 rlineto
          -56 315 rmoveto
          -108 hlineto
          -167 -315 167 -316 rlineto
          108 hlineto
          170 316 rlineto
          endchar
        </CharString>
        <CharString name="lslash">
          -211 258 480 rmoveto
          -97 -46 rlineto
          235 -113 -288 vlineto
          -88 -42 rlineto
          -83 vlineto
          88 42 rlineto
          -298 113 351 vlineto
          97 46 rlineto
          endchar
        </CharString>
        <CharString name="m">
          179 428 491 rmoveto
          -39 -30 -17 -33 -9 hvcurveto
          32 -13 -31 18 -50 hhcurveto
          -30 hlineto
          -37 -25 -15 -30 -9 hvcurveto
          45 481 callgsubr
          370 vlineto
          24 10 9 21 vhcurveto
          30 -62 callgsubr
          -376 114 370 vlineto
          24 9 9 22 vhcurveto
          30 -62 callgsubr
          -376 113 402 callsubr
          -71 vhcurveto
          endchar
        </CharString>
        <CharString name="macron">
          24 70 552 385 callsubr
        </CharString>
        <CharString name="minus">
          86 21 270 493 callsubr
          endchar
        </CharString>
        <CharString name="multiply">
          -12 385 424 rmoveto
          -68 68 -113 -113 -113 113 -68 -68 113 -113 -113 -113 68 -68 113 113 113 -113 68 68 -113 113 rlineto
          endchar
        </CharString>
        <CharString name="n">
          -21 226 491 14 callgsubr
        </CharString>
        <CharString name="nacute">
          -21 352 660 46 callgsubr
          -13 -32 14 callgsubr
        </CharString>
        <CharString name="ncaron">
          -21 250 523 rmoveto
          -4 callsubr
          106 -137 rlineto
          93 -32 14 callgsubr
        </CharString>
        <CharString name="nine">
          84 callsubr
        </CharString>
        <CharString name="notequal">
          80 314 365 rmoveto
          84 166 rlineto
          -79 hlineto
          -84 -166 rlineto
          -196 -96 148 hlineto
          -85 -169 rlineto
          79 hlineto
          85 169 rlineto
          195 96 hlineto
          endchar
        </CharString>
        <CharString name="ntilde">
          -21 129 553 rmoveto
          218 callsubr
          6 callsubr
          vlineto
          97 -42 14 callgsubr
        </CharString>
        <CharString name="numbersign">
          129 314 236 rmoveto
          -110 hlineto
          31 158 rlineto
          110 hlineto
          174 hmoveto
          81 -60 vlineto
          30 155 rlineto
          -99 hlineto
          -30 -155 rlineto
          -110 hlineto
          30 155 rlineto
          -99 hlineto
          -30 -155 rlineto
          -84 -81 69 hlineto
          -31 -158 rlineto
          -75 -81 60 492 callgsubr
          110 492 callgsubr
          84 81 -69 hlineto
          31 158 rlineto
          endchar
        </CharString>
        <CharString name="o">
          -18 253 112 -79 callgsubr
        </CharString>
        <CharString name="oacute">
          -18 361 660 46 callgsubr
          5 -411 -79 callgsubr
        </CharString>
        <CharString name="ocircumflex">
          -18 199 600 39 callsubr
          106 -411 -79 callgsubr
        </CharString>
        <CharString name="odieresis">
          -18 361 646 93 callsubr
          96 -429 -79 callgsubr
        </CharString>
        <CharString name="oe">
          237 354 288 rmoveto
          90 vlineto
          21 7 6 22 vhcurveto
          44 -62 callgsubr
          -90 vlineto
          -212 -170 rmoveto
          -22 -1 -9 -8 -21 hhcurveto
          -30 hlineto
          94 callgsubr
          21 9 -8 -22 1 hvcurveto
          141 118 rmoveto
          381 callgsubr
          -293 214 callsubr
          212 181 35 callsubr
          endchar
        </CharString>
        <CharString name="ogonek">
          24 240 304 callsubr
          106 -77 -33 -7 hlineto
          410 callgsubr
        </CharString>
        <CharString name="ograve">
          -18 244 523 120 callgsubr
          103 -411 -79 callgsubr
        </CharString>
        <CharString name="ohungarumlaut">
          -18 308 523 139 callsubr
          85 -411 -79 callgsubr
        </CharString>
        <CharString name="omacron">
          -18 348 372 callgsubr
          -95 -440 -79 callgsubr
        </CharString>
        <CharString name="one">
          394 callgsubr
        </CharString>
        <CharString name="onesuperior">
          -254 128 631 rmoveto
          -117 -54 42 -293 75 hlineto
          endchar
        </CharString>
        <CharString name="ordfeminine">
          -140 118 346 rmoveto
          -15 -5 4 15 hvcurveto
          186 vlineto
          15 5 4 15 vhcurveto
          37 hlineto
          15 7 -7 -16 hvcurveto
          -177 vlineto
          -18 -7 -6 -15 vhcurveto
          23 285 rmoveto
          -31 vlineto
          21 -6 -16 10 -26 hhcurveto
          -32 hlineto
          -51 -22 -25 -45 hvcurveto
          -207 vlineto
          -45 22 -25 51 vhcurveto
          34 hlineto
          24 15 9 18 6 hvcurveto
          -27 73 347 vlineto
          endchar
        </CharString>
        <CharString name="ordmasculine">
          -148 174 357 rmoveto
          -15 -5 -4 -16 vhcurveto
          -34 hlineto
          -16 -4 4 15 hvcurveto
          201 vlineto
          15 4 4 16 vhcurveto
          34 hlineto
          16 5 -4 -15 hvcurveto
          -73 73 rmoveto
          -54 -21 -25 -45 hvcurveto
          -207 vlineto
          -45 21 -25 54 vhcurveto
          70 hlineto
          54 22 25 45 hvcurveto
          207 vlineto
          45 -22 25 -54 vhcurveto
          endchar
        </CharString>
        <CharString name="oslash">
          -12 259 107 rmoveto
          -22 243 callgsubr
          -52 hlineto
          -14 -8 2 7 -4 hvcurveto
          107 206 rlineto
          -110 90 rmoveto
          22 6 6 23 vhcurveto
          52 hlineto
          14 8 -2 -7 4 hvcurveto
          -107 -206 rlineto
          223 314 rmoveto
          -60 hlineto
          -12 -24 rlineto
          3 -12 -13 1 -15 hhcurveto
          -113 hlineto
          -76 -30 177 callgsubr
          -29 6 -24 15 -16 vhcurveto
          -26 -50 rlineto
          60 hlineto
          12 24 rlineto
          -3 12 12 -1 15 hhcurveto
          113 hlineto
          77 30 36 63 hvcurveto
          293 vlineto
          29 -6 23 -15 17 vhcurveto
          endchar
        </CharString>
        <CharString name="otilde">
          -18 133 553 rmoveto
          218 callsubr
          6 callsubr
          vlineto
          120 -421 -79 callgsubr
        </CharString>
        <CharString name="p">
          -26 245 397 callsubr
          -30 hlineto
          -21 -10 9 24 hvcurveto
          249 vlineto
          24 10 9 21 vhcurveto
          30 -62 callgsubr
          -19 115 rmoveto
          -37 -25 -15 -30 -9 hvcurveto
          45 -112 -627 113 178 vlineto
          -28 10 24 -14 36 hhcurveto
          30 hlineto
          72 31 36 63 hvcurveto
          293 311 callsubr
        </CharString>
        <CharString name="paragraph">
          105 300 631 rmoveto
          -148 207 callsubr
          -212 -20 callgsubr
          50 -357 98 hlineto
          69 767 rmoveto
          -767 97 767 vlineto
          endchar
        </CharString>
        <CharString name="parenleft">
          -135 45 410 rmoveto
          -196 vlineto
          -248 81 -139 157 vhcurveto
          13 96 hlineto
          -12 1 rlineto
          -87 4 -37 107 177 vvcurveto
          200 vlineto
          177 37 107 87 4 vhcurveto
          12 1 rlineto
          96 -13 vlineto
          -157 -81 -139 -248 hvcurveto
          endchar
        </CharString>
        <CharString name="parenright">
          -135 239 214 rmoveto
          196 vlineto
          248 -81 139 -157 vhcurveto
          -13 -96 hlineto
          12 -1 rlineto
          86 -4 38 -107 -177 vvcurveto
          -200 vlineto
          -177 -38 -107 -86 -4 vhcurveto
          -12 -1 rlineto
          -96 13 vlineto
          157 81 139 248 hvcurveto
          endchar
        </CharString>
        <CharString name="percent">
          296 30 callsubr
          endchar
        </CharString>
        <CharString name="period">
          -230 34 hmoveto
          435 callgsubr
          endchar
        </CharString>
        <CharString name="periodcentered">
          -187 38 259 rmoveto
          122 130 -122 hlineto
          endchar
        </CharString>
        <CharString name="perthousand">
          598 30 callsubr
          431 -364 rmoveto
          55 -26 29 -63 vhcurveto
          -77 hlineto
          -64 -25 -29 -55 hvcurveto
          -183 vlineto
          -54 25 -30 64 vhcurveto
          77 hlineto
          63 26 30 54 hvcurveto
          -93 14 rmoveto
          -20 -5 -5 -20 vhcurveto
          -20 hlineto
          -20 -4 5 20 hvcurveto
          155 vlineto
          20 4 5 20 vhcurveto
          20 hlineto
          20 5 -5 -20 hvcurveto
          endchar
        </CharString>
        <CharString name="pi">
          55 470 491 rmoveto
          -403 -373 hlineto
          -7 callsubr
          -35 -91 68 3 callsubr
          309 104 -408 115 408 70 vlineto
          endchar
        </CharString>
        <CharString name="plus">
          19 418 359 rmoveto
          -143 152 -111 -152 -143 -89 143 -152 111 152 143 hlineto
          endchar
        </CharString>
        <CharString name="plusminus">
          33 28 161 493 callsubr
          254 196 rmoveto
          77 -111 -77 -143 -87 143 -78 111 78 143 87 vlineto
          endchar
        </CharString>
        <CharString name="product">
          46 65 631 rmoveto
          -513 vlineto
          142 callsubr
          -30 -91 63 3 callsubr
          448 124 -547 115 631 vlineto
          endchar
        </CharString>
        <CharString name="q">
          276 callgsubr
          33 403 rmoveto
          -48 vlineto
          -49 callgsubr
          -178 114 627 vlineto
          endchar
        </CharString>
        <CharString name="question">
          -41 113 hmoveto
          435 callgsubr
          16 496 rmoveto
          -79 -30 -39 -59 hvcurveto
          -84 116 71 vlineto
          20 5 8 22 vhcurveto
          40 hlineto
          21 5 -8 -20 hvcurveto
          -142 vlineto
          -20 -5 -8 -21 vhcurveto
          -86 hlineto
          10 -138 rlineto
          96 hlineto
          5 65 rlineto
          8 hlineto
          78 31 39 59 hvcurveto
          158 vlineto
          59 -31 39 -78 vhcurveto
          endchar
        </CharString>
        <CharString name="questiondown">
          -41 252 491 rmoveto
          -122 -135 122 hlineto
          -23 -314 rmoveto
          -71 vlineto
          -20 -5 -8 -22 vhcurveto
          -40 hlineto
          -21 -5 8 20 hvcurveto
          142 vlineto
          20 5 8 21 vhcurveto
          86 hlineto
          -10 138 rlineto
          -96 hlineto
          -5 -65 rlineto
          -8 hlineto
          -78 -31 -39 -59 hvcurveto
          -158 vlineto
          -59 31 -39 78 vhcurveto
          107 hlineto
          79 30 39 59 hvcurveto
          84 vlineto
          endchar
        </CharString>
        <CharString name="quotedbl">
          -87 37 631 rmoveto
          -236 103 236 vlineto
          53 hmoveto
          -236 103 236 vlineto
          endchar
        </CharString>
        <CharString name="quotedblbase">
          -62 34 135 332 callgsubr
        </CharString>
        <CharString name="quotedblleft">
          -62 323 354 rmoveto
          277 -35 vlineto
          -86 -205 rlineto
          -72 vlineto
          -46 hmoveto
          277 -35 vlineto
          -87 -205 rlineto
          -72 vlineto
          endchar
        </CharString>
        <CharString name="quotedblright">
          -62 34 631 332 callgsubr
        </CharString>
        <CharString name="quoteleft">
          -229 157 354 rmoveto
          277 -36 vlineto
          -87 -205 rlineto
          -72 vlineto
          endchar
        </CharString>
        <CharString name="quoteright">
          -229 34 631 rmoveto
          -277 36 vlineto
          87 205 rlineto
          72 vlineto
          endchar
        </CharString>
        <CharString name="quotesinglbase">
          305 callgsubr
          endchar
        </CharString>
        <CharString name="quotesingle">
          -235 37 631 rmoveto
          -236 111 236 vlineto
          endchar
        </CharString>
        <CharString name="r">
          -154 243 493 314 callsubr
        </CharString>
        <CharString name="racute">
          -154 313 660 46 callgsubr
          -45 308 callsubr
        </CharString>
        <CharString name="rcaron">
          -154 210 523 rmoveto
          -4 callsubr
          106 -137 rlineto
          62 308 callsubr
        </CharString>
        <CharString name="registered">
          13 400 541 rmoveto
          103 -33 61 -97 vhcurveto
          -108 hlineto
          -97 -32 -61 -103 hvcurveto
          -30 vlineto
          -103 32 -58 97 vhcurveto
          108 hlineto
          97 33 58 103 hvcurveto
          -229 -116 rmoveto
          -61 -23 34 76 hvcurveto
          41 vlineto
          76 23 38 61 vhcurveto
          91 hlineto
          62 22 -38 -76 hvcurveto
          -41 vlineto
          -76 -22 -34 -62 vhcurveto
          -103 235 rmoveto
          -203 43 77 8 vlineto
          32 -77 rlineto
          45 hlineto
          -35 79 rlineto
          17 4 7 12 18 vvcurveto
          55 vlineto
          23 -11 12 -27 vhcurveto
          -4 -85 rmoveto
          -5 -2 -2 -5 vhcurveto
          -25 60 25 hlineto
          5 2 -2 -5 hvcurveto
          endchar
        </CharString>
        <CharString name="ring">
          24 339 600 rmoveto
          49 -23 27 -58 vhcurveto
          -72 hlineto
          -58 -23 -27 -49 hvcurveto
          -17 vlineto
          -49 23 -26 58 vhcurveto
          72 hlineto
          58 23 26 49 hvcurveto
          -75 4 rmoveto
          -18 -4 -5 -21 vhcurveto
          -34 hlineto
          -21 -4 5 18 hvcurveto
          9 vlineto
          18 4 6 21 vhcurveto
          34 hlineto
          21 4 -6 -18 hvcurveto
          endchar
        </CharString>
        <CharString name="s">
          -58 221 108 85 callsubr
        </CharString>
        <CharString name="sacute">
          -58 141 523 161 callsubr
          -6 81 callgsubr
        </CharString>
        <CharString name="scaron">
          -58 121 523 rmoveto
          117 hlineto
          -4 callsubr
          206 81 callgsubr
        </CharString>
        <CharString name="section">
          34 259 380 rmoveto
          22 6 -6 -21 hvcurveto
          -88 439 callsubr
          -64 47 callgsubr
          88 -29 callgsubr
          204 148 rmoveto
          42 vlineto
          62 230 callgsubr
          -100 hlineto
          -77 -32 -36 -62 hvcurveto
          -92 vlineto
          -25 5 -20 11 -16 vhcurveto
          -29 -17 -10 -32 -44 vvcurveto
          -71 -20 callgsubr
          65 -62 callgsubr
          -70 vlineto
          -7 callsubr
          -35 -9 callgsubr
          33 -113 -42 -20 callgsubr
          101 hlineto
          76 33 36 63 hvcurveto
          91 vlineto
          22 -4 20 -9 15 vhcurveto
          26 17 9 32 42 vvcurveto
          77 35 callsubr
          -64 -9 callgsubr
          70 vlineto
          21 7 6 22 vhcurveto
          35 -62 callgsubr
          -32 vlineto
          endchar
        </CharString>
        <CharString name="semicolon">
          305 callgsubr
          -122 221 rmoveto
          435 callgsubr
          endchar
        </CharString>
        <CharString name="seven">
          314 callgsubr
        </CharString>
        <CharString name="six">
          88 callgsubr
        </CharString>
        <CharString name="slash">
          257 callsubr
        </CharString>
        <CharString name="space">
          -259 endchar
        </CharString>
        <CharString name="sterling">
          1 164 88 rmoveto
          23 15 4 28 35 vvcurveto
          94 136 84 -136 172 -29 callgsubr
          34 170 callsubr
          -76 115 92 35 callsubr
          -104 207 callsubr
          -188 -47 -84 47 -85 vlineto
          -60 -8 -28 -39 -3 vhcurveto
          -84 373 88 vlineto
          endchar
        </CharString>
        <CharString name="t">
          -176 234 403 288 callsubr
        </CharString>
        <CharString name="tcaron">
          -176 167 579 rmoveto
          -113 -88 -49 -88 49 -304 hlineto
          -63 32 -36 77 vhcurveto
          70 91 -37 -9 callgsubr
          285 67 88 -67 vlineto
          43 196 rmoveto
          -163 32 vlineto
          62 108 rlineto
          55 vlineto
          endchar
        </CharString>
        <CharString name="thorn">
          -21 243 115 196 callsubr
          -29 hlineto
          -22 -9 9 24 hvcurveto
          249 vlineto
          24 9 9 22 vhcurveto
          29 170 callsubr
          -20 115 rmoveto
          -38 -25 -16 -32 -8 hvcurveto
          226 -112 -805 114 178 vlineto
          -28 10 24 -14 35 hhcurveto
          30 hlineto
          72 31 36 63 hvcurveto
          293 311 callsubr
        </CharString>
        <CharString name="three">
          66 callgsubr
        </CharString>
        <CharString name="threesuperior">
          -186 88 562 rmoveto
          11 4 4 12 vhcurveto
          18 hlineto
          12 3 -4 -11 hvcurveto
          -63 vlineto
          -11 -3 -4 -12 vhcurveto
          -33 -52 33 hlineto
          12 3 -3 -12 hvcurveto
          -64 vlineto
          -12 -3 -3 -12 vhcurveto
          -18 hlineto
          -12 -4 3 12 hvcurveto
          41 -73 -56 vlineto
          -34 18 -20 42 vhcurveto
          75 hlineto
          42 18 20 34 hvcurveto
          81 vlineto
          21 -6 13 -17 6 vhcurveto
          17 5 6 15 22 vvcurveto
          76 vlineto
          34 -18 20 -42 vhcurveto
          -75 hlineto
          -42 -18 -20 -34 hvcurveto
          -56 73 vlineto
          endchar
        </CharString>
        <CharString name="tilde">
          24 284 533 rmoveto
          6 callsubr
          20 vlineto
          218 callsubr
          endchar
        </CharString>
        <CharString name="trademark">
          237 7 556 rmoveto
          83 -252 91 252 83 75 -257 hlineto
          517 hmoveto
          -62 -185 -63 185 rlineto
          -102 -327 82 195 hlineto
          47 -143 rlineto
          73 hlineto
          46 143 rlineto
          -195 82 327 vlineto
          endchar
        </CharString>
        <CharString name="two">
          127 callgsubr
        </CharString>
        <CharString name="twosuperior">
          -193 87 562 rmoveto
          11 3 4 12 vhcurveto
          16 hlineto
          12 3 -4 -11 hvcurveto
          -23 vlineto
          -29 -2 -16 -16 -20 vhcurveto
          -101 -137 rlineto
          -53 194 57 -106 vlineto
          76 111 rlineto
          20 25 9 27 37 vvcurveto
          36 vlineto
          34 -18 20 -42 vhcurveto
          -74 hlineto
          -42 -17 -20 -34 hvcurveto
          -65 73 vlineto
          endchar
        </CharString>
        <CharString name="u">
          -21 243 491 -55 callgsubr
        </CharString>
        <CharString name="uacute">
          -21 355 660 46 callgsubr
          1 -32 -55 callgsubr
        </CharString>
        <CharString name="ucircumflex">
          -23 196 600 39 callsubr
          99 -32 -55 callgsubr
        </CharString>
        <CharString name="udieresis">
          -16 355 646 93 callsubr
          92 -50 -55 callgsubr
        </CharString>
        <CharString name="ugrave">
          -21 249 523 120 callgsubr
          88 -32 -55 callgsubr
        </CharString>
        <CharString name="uhungarumlaut">
          -21 300 523 139 callsubr
          83 -32 -55 callgsubr
        </CharString>
        <CharString name="umacron">
          -21 349 372 callgsubr
          -106 -61 -55 callgsubr
        </CharString>
        <CharString name="underscore">
          54 -126 vmoveto
          474 84 -474 hlineto
          endchar
        </CharString>
        <CharString name="uni00A0">
          -259 endchar
        </CharString>
        <CharString name="uni00AD">
          456 callsubr
        </CharString>
        <CharString name="uni00B5">
          -15 243 491 rmoveto
          -370 vlineto
          -24 -10 -9 -21 vhcurveto
          -30 -9 callgsubr
          376 -113 -627 113 136 20 vlineto
          38 25 16 33 8 hvcurveto
          -49 112 484 callgsubr
        </CharString>
        <CharString name="uni0122">
          -4 158 68 callgsubr
          220 486 33 callsubr
        </CharString>
        <CharString name="uni0123">
          -26 265 724 rmoveto
          -38 hlineto
          -80 -141 rlineto
          -60 118 vlineto
          -88 -422 91 callgsubr
        </CharString>
        <CharString name="uni0136">
          6 163 631 rmoveto
          -115 -631 115 hlineto
          -8 68 callgsubr
          263 680 rmoveto
          360 callsubr
        </CharString>
        <CharString name="uni0137">
          -29 156 669 rmoveto
          -113 -669 113 hlineto
          -11 68 callgsubr
          245 540 368 callgsubr
        </CharString>
        <CharString name="uni013B">
          -86 129 68 callgsubr
          34 137 rmoveto
          309 callsubr
        </CharString>
        <CharString name="uni013C">
          -221 156 hmoveto
          434 callsubr
          -3 -49 455 callsubr
        </CharString>
        <CharString name="uni0145">
          155 callgsubr
          -242 -680 242 callgsubr
        </CharString>
        <CharString name="uni0146">
          -21 140 68 callgsubr
          86 540 14 callgsubr
        </CharString>
        <CharString name="uni0156">
          10 155 68 callgsubr
          8 592 rmoveto
          83 -62 callgsubr
          -158 vlineto
          -7 callsubr
          -83 hlineto
          153 -82 rmoveto
          51 10 22 34 52 vvcurveto
          187 35 callsubr
          -232 -631 115 246 38 hlineto
          96 -246 rlineto
          124 hlineto
          endchar
        </CharString>
        <CharString name="uni0157">
          -154 42 68 callgsubr
          201 542 314 callsubr
        </CharString>
        <CharString name="uni015E">
          -21 248 115 -71 callsubr
          -108 -299 242 callgsubr
        </CharString>
        <CharString name="uni015F">
          -58 221 108 -67 callsubr
          -100 -226 242 callgsubr
        </CharString>
        <CharString name="uni0162">
          -74 113 68 callgsubr
          -108 680 rmoveto
          265 callgsubr
          88 vlineto
          endchar
        </CharString>
        <CharString name="uni0163">
          -74 114 68 callgsubr
          -109 680 rmoveto
          265 callgsubr
          88 vlineto
          endchar
        </CharString>
        <CharString name="uni0218">
          -21 248 115 -71 callsubr
          -108 -299 242 callgsubr
        </CharString>
        <CharString name="uni0219">
          -58 221 108 -67 callsubr
          -95 -226 455 callsubr
        </CharString>
        <CharString name="uni021A">
          -74 114 68 callgsubr
          -109 680 rmoveto
          265 callgsubr
          88 vlineto
          endchar
        </CharString>
        <CharString name="uni021B">
          -176 80 68 callgsubr
          154 452 288 callsubr
        </CharString>
        <CharString name="uni02C9">
          24 70 552 385 callsubr
        </CharString>
        <CharString name="uni0901">
          -420 -286 833 rmoveto
          -66 vlineto
          -59 32 -29 79 vhcurveto
          143 hlineto
          79 32 29 59 hvcurveto
          66 -98 415 callsubr
          vlineto
          38 53 rmoveto
          -95 92 95 vlineto
          endchar
        </CharString>
        <CharString name="uni0902">
          -420 -152 832 361 callsubr
        </CharString>
        <CharString name="uni0902.aMatraI">
          -420 24 762 214 callgsubr
        </CharString>
        <CharString name="uni0903">
          -219 53 166 rmoveto
          -105 95 105 vlineto
          -95 327 214 callgsubr
        </CharString>
        <CharString name="uni0905">
          181 621 631 rmoveto
          -181 -88 callsubr
          68 vlineto
          endchar
        </CharString>
        <CharString name="uni0906">
          392 831 631 rmoveto
          -391 -88 callsubr
          97 352 callsubr
          endchar
        </CharString>
        <CharString name="uni0907">
          -26 341 336 callgsubr
          73 83 -434 36 callsubr
          endchar
        </CharString>
        <CharString name="uni0908">
          -26 341 336 callgsubr
          73 83 -73 55 -91 callsubr
          42 78 -77 -93 callgsubr
          -68 -248 36 callsubr
          endchar
        </CharString>
        <CharString name="uni09080902">
          -26 341 380 callgsubr
          -248 36 callsubr
          167 147 73 83 -73 hlineto
          33 113 420 callgsubr
        </CharString>
        <CharString name="uni0909">
          -31 405 631 rmoveto
          -425 159 callgsubr
          210 vlineto
          32 -15 15 -26 3 vhcurveto
          4 vlineto
          423 callgsubr
          76 hlineto
          endchar
        </CharString>
        <CharString name="uni090A">
          133 573 631 rmoveto
          -593 159 callgsubr
          178 51 vlineto
          21 6 -5 -23 hvcurveto
          -132 -46 callsubr
          -17 -83 52 hlineto
          77 29 44 callsubr
          160 vlineto
          71 -35 29 -67 vhcurveto
          -131 4 hlineto
          423 callgsubr
          244 hlineto
          endchar
        </CharString>
        <CharString name="uni090B">
          376 582 375 rmoveto
          20 5 7 21 vhcurveto
          11 hlineto
          22 5 -7 -20 hvcurveto
          -77 vlineto
          -20 -8 -7 -15 vhcurveto
          -17 hlineto
          -16 -8 8 19 hvcurveto
          -178 250 rmoveto
          412 83 -836 -83 311 -277 -10 hlineto
          -80 139 rlineto
          -37 callsubr
          23 -193 113 193 215 hlineto
          19 7 -4 -20 hvcurveto
          -64 vlineto
          -20 -5 -7 -21 vhcurveto
          -11 hlineto
          -18 -6 7 20 hvcurveto
          35 -112 -49 vlineto
          -57 25 -34 75 vhcurveto
          80 hlineto
          80 26 32 59 hvcurveto
          89 vlineto
          36 -13 15 -25 6 vhcurveto
          5 vlineto
          26 7 13 16 48 vvcurveto
          67 vlineto
          68 -31 31 -84 vhcurveto
          -60 hlineto
          -84 -31 487 callgsubr
          -79 hlineto
          endchar
        </CharString>
        <CharString name="uni090C">
          179 554 39 rmoveto
          509 145 callgsubr
          -172 113 172 428 callsubr
          -279 -6 hlineto
          -77 -27 -30 -62 hvcurveto
          -65 vlineto
          -62 28 -29 78 vhcurveto
          167 82 -132 hlineto
          -22 -6 5 21 hvcurveto
          35 196 callgsubr
          endchar
        </CharString>
        <CharString name="uni090D">
          16 294 670 rmoveto
          80 32 29 59 hvcurveto
          66 -98 -54 vlineto
          -23 -6 -6 -24 vhcurveto
          -110 hlineto
          -23 -7 6 23 hvcurveto
          54 -97 -66 vlineto
          -59 31 -29 80 vhcurveto
          304 -39 rmoveto
          -476 -83 68 -457 hlineto
          9 callgsubr
        </CharString>
        <CharString name="uni090E">
          16 456 631 rmoveto
          -62 288 callgsubr
          -300 -83 68 -457 vlineto
          9 callgsubr
        </CharString>
        <CharString name="uni090F">
          16 456 631 rmoveto
          -476 -83 68 -457 hlineto
          9 callgsubr
        </CharString>
        <CharString name="uni0910">
          16 456 631 rmoveto
          -69 204 callsubr
          -292 -83 68 -457 hlineto
          9 callgsubr
        </CharString>
        <CharString name="uni0911">
          392 831 631 rmoveto
          -391 -88 callsubr
          97 352 callsubr
          -40 285 128 callgsubr
        </CharString>
        <CharString name="uni0912">
          391 831 631 rmoveto
          -68 288 callgsubr
          -209 -275 -130 vlineto
          -84 callgsubr
          97 352 callsubr
          endchar
        </CharString>
        <CharString name="uni0913">
          391 831 631 rmoveto
          -69 204 callsubr
          -207 -88 callsubr
          97 352 callsubr
          endchar
        </CharString>
        <CharString name="uni0914">
          392 831 631 rmoveto
          -70 hlineto
          -31 195 337 callsubr
          -139 hlineto
          130 -117 47 -42 28 -21 23 -15 rlinecurve
          -201 -88 callsubr
          97 352 callsubr
          endchar
        </CharString>
        <CharString name="uni0915">
          172 612 483 callsubr
          -632 -83 259 -358 vlineto
          -23 -8 -6 -21 vhcurveto
          -35 hlineto
          -21 -7 5 23 hvcurveto
          186 vlineto
          21 7 5 21 vhcurveto
          24 78 -59 hlineto
          -78 -28 -29 -62 hvcurveto
          -210 vlineto
          41 callsubr
        </CharString>
        <CharString name="uni0915093C">
          172 67 -89 -45 callsubr
          545 532 rmoveto
          83 -632 -83 259 -358 vlineto
          -23 -8 -6 -21 vhcurveto
          -35 hlineto
          -21 -7 5 23 hvcurveto
          186 vlineto
          21 7 5 21 vhcurveto
          24 78 -59 hlineto
          -78 -28 -29 -62 hvcurveto
          -210 vlineto
          41 callsubr
        </CharString>
        <CharString name="uni0915093C094D">
          -6 67 -89 -45 callsubr
          432 532 rmoveto
          83 -519 -83 259 -358 vlineto
          -105 callsubr
          117 82 -105 65 callgsubr
          vlineto
          endchar
        </CharString>
        <CharString name="uni0915093C094D0915093C">
          574 84 -107 -45 callsubr
          403 -103 -45 callsubr
          154 330 callsubr
          -207 395 callsubr
          288 vlineto
          373 hmoveto
          83 -1034 64 callgsubr
          50 callgsubr
          60 hlineto
          -4 -12 -2 -12 -12 vvcurveto
          -183 38 callsubr
        </CharString>
        <CharString name="uni0915093C094D0924">
          415 89 -105 -45 callsubr
          577 449 rmoveto
          -272 65 callgsubr
          313 vlineto
          362 callsubr
          -867 -83 259 -358 hlineto
          -105 callsubr
          62 -9 hlineto
          -267 95 callgsubr
          229 -21 callsubr
          81 -367 339 callsubr
        </CharString>
        <CharString name="uni0915093C094D092B">
          586 89 -105 -45 callsubr
          565 21 callgsubr
          -260 253 callgsubr
          95 -99 vlineto
          578 99 rmoveto
          83 -1046 -83 259 -358 vlineto
          -105 callsubr
          66 -189 hlineto
          -70 35 -30 67 vhcurveto
          62 hlineto
          20 14 4 9 8 hvcurveto
          -91 -99 callsubr
        </CharString>
        <CharString name="uni0915093C094D092B093C">
          586 94 -105 -45 callsubr
          420 -105 -45 callsubr
          140 21 callgsubr
          -260 253 callgsubr
          95 -99 vlineto
          578 99 rmoveto
          83 -1046 -83 259 -358 vlineto
          -105 callsubr
          66 -189 hlineto
          -70 35 -30 67 vhcurveto
          62 hlineto
          20 14 4 9 8 hvcurveto
          -91 -99 callsubr
        </CharString>
        <CharString name="uni0915093C094D092C">
          450 89 -105 -45 callsubr
          504 401 rmoveto
          74 78 -273 395 callsubr
          355 -223 vlineto
          -89 6 -32 175 callgsubr
          -29 45 vhcurveto
          -71 -139 rmoveto
          -21 -6 104 callsubr
          20 -37 25 -43 72 -112 rcurveline
          206 470 rmoveto
          -910 21 callsubr
          50 callgsubr
          60 -9 hlineto
          -210 338 callgsubr
        </CharString>
        <CharString name="uni0915093C094D092E">
          602 89 -105 -45 callsubr
          771 252 callsubr
          460 callgsubr
          -43 hlineto
          -21 -7 5 22 hvcurveto
          118 -94 callgsubr
          72 hlineto
          -296 199 rmoveto
          296 -116 -255 212 callgsubr
          689 211 rmoveto
          -1062 21 callsubr
          320 403 callgsubr
          62 -8 hlineto
          -146 vlineto
          -71 33 -29 83 vhcurveto
          87 hlineto
          83 32 29 71 hvcurveto
          154 493 callgsubr
        </CharString>
        <CharString name="uni0915093C094D0930">
          172 187 -154 -45 callsubr
          425 597 rmoveto
          83 -632 4 callgsubr
          367 vlineto
          23 320 callsubr
          -161 -46 callsubr
          -24 -78 59 340 callsubr
          184 195 callsubr
          -62 395 callsubr
          vlineto
          endchar
        </CharString>
        <CharString name="uni0915093C094D0930094D">
          62 191 -151 -45 callsubr
          337 594 rmoveto
          83 -548 4 callgsubr
          337 -32 callsubr
          146 82 -134 65 callgsubr
          vlineto
          endchar
        </CharString>
        <CharString name="uni0915094D">
          -6 499 483 callsubr
          -519 -83 259 -358 vlineto
          -105 callsubr
          117 82 -105 65 callgsubr
          vlineto
          endchar
        </CharString>
        <CharString name="uni0915094D0915">
          574 641 330 callsubr
          -207 395 callsubr
          288 vlineto
          373 hmoveto
          83 -1034 64 callgsubr
          50 callgsubr
          60 hlineto
          -4 -12 -2 -12 -12 vvcurveto
          -183 38 callsubr
        </CharString>
        <CharString name="uni0915094D0916">
          717 618 354 rmoveto
          -26 -7 -6 -25 vhcurveto
          -28 127 264 callsubr
          233 vlineto
          268 callsubr
          539 115 rmoveto
          -1177 -83 259 -358 hlineto
          -105 callsubr
          62 -272 -36 callgsubr
          252 -332 hlineto
          -60 callsubr
          -116 111 2 callgsubr
        </CharString>
        <CharString name="uni0915094D091A">
          398 657 190 rmoveto
          -23 -8 -6 -22 vhcurveto
          -46 -94 callsubr
          150 vlineto
          267 callsubr
          -220 65 callgsubr
          304 vlineto
          362 callsubr
          -858 -83 259 -358 hlineto
          -105 callsubr
          71 321 callsubr
          -150 vlineto
          -70 34 -30 68 vhcurveto
          73 72 callgsubr
        </CharString>
        <CharString name="uni0915094D091C">
          576 835 479 rmoveto
          -193 -290 hlineto
          471 callgsubr
          290 -164 vlineto
          195 callgsubr
          80 482 vlineto
          362 callsubr
          -1036 21 callsubr
          50 callgsubr
          62 -219 hlineto
          355 callsubr
          354 callsubr
          219 80 -397 242 callsubr
        </CharString>
        <CharString name="uni0915094D091F">
          383 353 548 rmoveto
          285 -69 -244 79 callsubr
          398 -71 rmoveto
          151 72 83 -843 64 callgsubr
          50 callgsubr
          62 -9 hlineto
          -288 284 callsubr
          80 80 callgsubr
        </CharString>
        <CharString name="uni0915094D0923">
          585 646 189 rmoveto
          298 callgsubr
          359 84 vlineto
          -252 253 callgsubr
          96 -99 vlineto
          576 182 rmoveto
          -1045 -83 259 -358 hlineto
          -105 callsubr
          67 -189 328 callsubr
        </CharString>
        <CharString name="uni0915094D0924">
          202 642 483 callsubr
          -662 -83 290 -81 vlineto
          8 -8 -13 4 -20 hhcurveto
          -223 -82 74 hlineto
          -10 -8 -5 -13 -20 vvcurveto
          -187 vlineto
          -61 28 -30 77 vhcurveto
          59 78 174 callsubr
          186 -65 callsubr
          36 hlineto
          21 8 -7 -23 hvcurveto
          -367 113 50 callgsubr
          36 264 callgsubr
          28 495 callsubr
          -34 29 -67 vhcurveto
          -63 395 callgsubr
          vlineto
          endchar
        </CharString>
        <CharString name="uni0915094D0924094D092F">
          736 994 -48 callsubr
          139 126 callgsubr
          90 169 callgsubr
          -600 -137 rmoveto
          177 callsubr
          149 411 vlineto
          183 callsubr
          -78 8 callsubr
          399 220 rmoveto
          -1196 21 callsubr
          299 vlineto
          22 171 callgsubr
          74 -8 hlineto
          -229 vlineto
          -61 28 -30 78 163 callgsubr
          191 -94 callgsubr
          80 -150 hlineto
          376 callsubr
          289 callgsubr
        </CharString>
        <CharString name="uni0915094D0924094D0930">
          409 667 271 rmoveto
          -10 hlineto
          -80 139 rlineto
          49 -28 -23 18 -61 hhcurveto
          -71 212 callgsubr
          83 314 vlineto
          208 callsubr
          -869 21 callsubr
          365 403 callgsubr
          41 hlineto
          28 12 -8 -30 17 hvcurveto
          65 -118 -154 -238 rlineto
          128 hlineto
          125 193 rlineto
          23 -193 206 callsubr
        </CharString>
</ttFont>
